<?xml version="1.0" encoding="utf-8"?>
<!-- Generator: Adobe Illustrator 23.0.2, SVG Export Plug-In . SVG Version: 6.00 Build 0)  -->
<svg version="1.1" id="Layer_1" xmlns="http://www.w3.org/2000/svg" xmlns:xlink="http://www.w3.org/1999/xlink" x="0px" y="0px"
	 viewBox="0 0 116.17 103.53" style="enable-background:new 0 0 116.17 103.53;" xml:space="preserve">
<style type="text/css">
	.st0{fill:#FFFFFF;}
	.st1{fill:#080828;}
</style>
<g id="XMLID_128_">
	<g id="XMLID_28_">
		<path id="XMLID_60_" class="st0" d="M93.97,50.37C92.79,32.45,78.42,18.08,60.51,16.9c-0.8-0.06-1.6-0.08-2.4-0.08
			c-0.81,0-1.61,0.03-2.4,0.08c-17.9,1.18-32.26,15.53-33.45,33.43c-0.06,0.8-0.08,1.61-0.08,2.42c0,0.8,0.03,1.59,0.08,2.38
			c1.18,17.91,15.55,32.29,33.46,33.47c0.79,0.06,1.59,0.08,2.4,0.08c0.81,0,1.61-0.03,2.4-0.08c17.9-1.19,32.26-15.53,33.46-33.43
			c0.06-0.8,0.08-1.61,0.08-2.42C94.05,51.95,94.02,51.16,93.97,50.37z M59.86,86.96C59.28,86.98,58.69,87,58.1,87
			c-0.59,0-1.17-0.02-1.75-0.04c-17.51-0.89-31.59-14.97-32.46-32.48c-0.02-0.57-0.04-1.15-0.04-1.73c0-0.6,0.02-1.19,0.04-1.77
			c0.9-17.48,14.97-31.55,32.46-32.44c0.58-0.03,1.16-0.04,1.75-0.04c0.59,0,1.18,0.02,1.76,0.04c17.5,0.89,31.58,14.98,32.46,32.48
			c0.03,0.57,0.04,1.15,0.04,1.73c0,0.6-0.02,1.19-0.04,1.77C91.42,72.01,77.35,86.07,59.86,86.96z"/>
	</g>
	<path id="XMLID_50_" class="st0" d="M58.1,11.4c-22.8,0-41.34,18.55-41.34,41.35c0,22.8,18.54,41.35,41.34,41.35
		c22.8,0,41.35-18.55,41.35-41.35C99.46,29.95,80.9,11.4,58.1,11.4z M60.96,89.77l-0.45-1.17l-0.65-1.64l-1.76-4.47l-1.75,4.47
		l-0.65,1.64l-0.45,1.17C37.04,88.38,22.46,73.8,21.08,55.58l1.16-0.45l1.65-0.65l4.47-1.75l-4.47-1.76l-1.64-0.65l-1.17-0.45
		c1.4-18.2,15.97-32.76,34.17-34.14l0.45,1.17l0.65,1.64l1.75,4.47l1.76-4.47l0.65-1.64l0.45-1.17
		c18.22,1.39,32.78,15.97,34.17,34.19l-1.16,0.45l-1.65,0.65l-4.48,1.75l4.48,1.76l1.64,0.65l1.16,0.45
		C93.73,73.82,79.16,88.38,60.96,89.77z"/>
	<polygon id="XMLID_45_" class="st0" points="71.45,28.51 65.46,55.73 51.77,48.2 	"/>
	<path id="XMLID_59_" class="st0" d="M50.47,51.61l-5.7,25.37L64.01,57.9c0.14-0.13,0.28-0.27,0.41-0.4l0.14-0.14l-0.01,0
		c0.41-0.46,0.78-0.96,1.09-1.52c2.16-3.92,0.73-8.84-3.19-10.99c-3.92-2.16-8.84-0.73-10.99,3.19
		C50.84,49.17,50.52,50.4,50.47,51.61z"/>
	<path id="XMLID_51_" class="st1" d="M54.69,49.81c1.17-2.13,3.86-2.91,5.99-1.74c2.13,1.17,2.91,3.86,1.74,5.99
		s-3.86,2.91-5.99,1.74C54.29,54.62,53.51,51.94,54.69,49.81z"/>
</g>
</svg>
