<?xml version="1.0" encoding="utf-8"?>
<!-- Generator: Adobe Illustrator 23.0.2, SVG Export Plug-In . SVG Version: 6.00 Build 0)  -->
<svg version="1.1" id="Layer_1" xmlns="http://www.w3.org/2000/svg" xmlns:xlink="http://www.w3.org/1999/xlink" x="0px" y="0px"
	 viewBox="0 0 116.17 103.53" style="enable-background:new 0 0 116.17 103.53;" xml:space="preserve">
<style type="text/css">
	.st0{fill:#0096AF;}
	.st1{fill:#047D89;}
	.st2{fill:#BCBEC0;}
	.st3{fill:#939598;}
	.st4{fill:#F1F2F2;}
	.st5{fill:#53A2D3;}
	.st6{opacity:0.1;}
	.st7{fill:#CCEFFF;}
	.st8{fill:#E6E7E8;}
	.st9{fill:#6D6E71;}
	.st10{fill:#3C3B3D;}
	.st11{fill:#FFFFFF;}
</style>
<g id="Astronaut">
	<g id="Astronaut_2_">
		<g id="Ground">
			<path class="st0" d="M116.17,99.07c-0.37-0.33-0.7-0.61-0.94-0.79c-16.12-11.53-35.87-18.31-57.2-18.31
				c-21.23,0-40.89,6.72-56.97,18.14c-0.2,0.15-0.52,0.41-0.86,0.71v4.49h115.98V99.07z"/>
			<path class="st1" d="M38.85,88.91c0.1,0.74-1.9,1.64-4.47,1.99c-2.57,0.36-4.74,0.04-4.84-0.7c-0.1-0.74,1.9-1.64,4.47-1.99
				C36.58,87.85,38.74,88.17,38.85,88.91z"/>
			<path class="st1" d="M85.19,91.71c-0.22,0.72-2.41,0.67-4.89-0.1c-2.48-0.77-4.31-1.98-4.08-2.7c0.22-0.72,2.41-0.67,4.89,0.1
				C83.59,89.79,85.41,90.99,85.19,91.71z"/>
			<path class="st1" d="M63.34,98.4c0.03,0.75-2.06,1.43-4.65,1.52c-2.59,0.09-4.72-0.45-4.74-1.2c-0.03-0.75,2.06-1.43,4.65-1.52
				C61.19,97.11,63.31,97.65,63.34,98.4z"/>
		</g>
		<g id="Astronaut_1_">
			<g>
				<path class="st2" d="M69.39,22c-0.35,0-0.63-0.28-0.63-0.63v-4.53H65.7c-0.35,0-0.63-0.28-0.63-0.63c0-0.35,0.28-0.63,0.63-0.63
					h3.69c0.35,0,0.63,0.28,0.63,0.63v5.16C70.02,21.72,69.74,22,69.39,22z"/>
			</g>
			<path class="st3" d="M73.84,56.99c0,0.87-0.71,1.57-1.57,1.57H43.21c-0.87,0-1.57-0.71-1.57-1.57V21.6
				c0-0.87,0.71-1.57,1.57-1.57h29.05c0.87,0,1.57,0.71,1.57,1.57V56.99z"/>
			<path class="st4" d="M66.33,13.64c0,4.75-3.85,8.59-8.59,8.59c-4.75,0-8.59-3.85-8.59-8.59c0-4.75,3.85-8.59,8.59-8.59
				C62.48,5.05,66.33,8.89,66.33,13.64z"/>
			<rect x="49.14" y="13.64" class="st4" width="17.19" height="9.88"/>
			<path class="st5" d="M65.28,13.87c0,3.4-3.38,6.16-7.54,6.16s-7.54-2.76-7.54-6.16c0-3.4,3.38-6.16,7.54-6.16
				S65.28,10.47,65.28,13.87z"/>
			<path class="st6" d="M60.18,8.04c0.68,0.92,1.07,2,1.07,3.16c0,3.4-3.38,6.16-7.54,6.16c-0.86,0-1.68-0.12-2.45-0.33
				c1.32,1.8,3.73,3,6.48,3c4.17,0,7.54-2.76,7.54-6.16C65.28,11.17,63.15,8.87,60.18,8.04z"/>
			<path class="st7" d="M55.55,11.79c0,1.02-0.83,1.85-1.85,1.85c-1.02,0-1.85-0.83-1.85-1.85c0-1.02,0.83-1.85,1.85-1.85
				C54.73,9.95,55.55,10.77,55.55,11.79z"/>
			<path class="st7" d="M54.9,15.81c0,0.52-0.42,0.94-0.94,0.94c-0.52,0-0.94-0.42-0.94-0.94c0-0.52,0.42-0.94,0.94-0.94
				C54.48,14.87,54.9,15.29,54.9,15.81z"/>
			<rect x="34.85" y="23.51" class="st8" width="15.34" height="5.92"/>
			<path class="st8" d="M38.13,12.8c0,1.64-1.33,2.97-2.97,2.97c-1.64,0-2.97-1.33-2.97-2.97c0-1.64,1.33-2.97,2.97-2.97
				C36.8,9.83,38.13,11.16,38.13,12.8z"/>
			<path class="st8" d="M38.94,13.74c0,0.45-0.36,0.81-0.81,0.81c-0.45,0-0.81-0.36-0.81-0.81c0-0.45,0.36-0.81,0.81-0.81
				C38.58,12.92,38.94,13.29,38.94,13.74z"/>
			<rect x="68.97" y="23.51" class="st8" width="12.09" height="5.92"/>
			<path class="st8" d="M83.31,40.15c0-1.64-1.33-2.97-2.97-2.97c-1.64,0-2.97,1.33-2.97,2.97c0,1.64,1.33,2.97,2.97,2.97
				C81.98,43.12,83.31,41.79,83.31,40.15z"/>
			<path class="st8" d="M78.2,39.3c0-0.45-0.36-0.81-0.81-0.81s-0.81,0.36-0.81,0.81c0,0.45,0.36,0.81,0.81,0.81
				S78.2,39.75,78.2,39.3z"/>
			<rect x="44.7" y="50.96" class="st8" width="9.25" height="30.39"/>
			<rect x="61.51" y="50.96" class="st8" width="9.25" height="30.39"/>
			<g>
				<path class="st2" d="M49.33,76.26c-2.99,0-5.41,2.42-5.41,5.41h10.82C54.74,78.68,52.32,76.26,49.33,76.26z"/>
			</g>
			<rect x="43.92" y="81.67" class="st9" width="10.82" height="1.05"/>
			<g>
				<path class="st2" d="M66.14,76.26c-2.99,0-5.41,2.42-5.41,5.41h10.82C71.55,78.68,69.13,76.26,66.14,76.26z"/>
			</g>
			<rect x="60.73" y="81.67" class="st9" width="10.82" height="1.05"/>
			<path class="st8" d="M83.3,31.45v-7.3c0-0.35-0.28-0.63-0.63-0.63h-4.66c-0.35,0-0.63,0.28-0.63,0.63v7.3h-0.01v8.7h0.64h4.66
				h0.64L83.3,31.45L83.3,31.45z"/>
			<path class="st8" d="M32.2,21.5v7.3c0,0.35,0.28,0.63,0.63,0.63h4.66c0.35,0,0.63-0.28,0.63-0.63v-7.3h0.01v-8.7h-0.64h-4.66
				H32.2L32.2,21.5L32.2,21.5z"/>
			<path class="st8" d="M70.77,51.53c0,0.87-0.71,1.57-1.57,1.57H46.28c-0.87,0-1.57-0.71-1.57-1.57V25.09
				c0-0.87,0.71-1.57,1.57-1.57h22.92c0.87,0,1.57,0.71,1.57,1.57V51.53z"/>
			<rect x="57.25" y="23.51" class="st2" width="0.97" height="29.59"/>
			<rect x="44.7" y="47" class="st10" width="26.06" height="2.64"/>
			<rect x="55.2" y="45.95" class="st10" width="5.08" height="4.74"/>
			<rect x="56.86" y="47.5" class="st8" width="1.75" height="1.64"/>
		</g>
		<g id="Star_5_">
			<g>
				<circle class="st11" cx="87.89" cy="16.76" r="1.74"/>
			</g>
			<g>
				<circle class="st11" cx="33.52" cy="77.75" r="1.68"/>
			</g>
			<g>
				<path class="st11" d="M41.65,1.72c-1.03,0.64-2.38,0.32-3.02-0.71c0.64,1.03,0.32,2.38-0.71,3.02c1.03-0.64,2.38-0.32,3.02,0.71
					C40.31,3.71,40.62,2.36,41.65,1.72z"/>
			</g>
			<g>
				
					<ellipse transform="matrix(0.2283 -0.9736 0.9736 0.2283 -10.5726 46.2036)" class="st11" cx="23.86" cy="29.77" rx="2.01" ry="1.39"/>
			</g>
			<g>
				<path class="st11" d="M89.27,42.98c-0.76,0.47-1.76,0.24-2.23-0.52c0.47,0.76,0.24,1.76-0.52,2.23
					c0.76-0.47,1.76-0.24,2.23,0.52C88.27,44.45,88.51,43.45,89.27,42.98z"/>
			</g>
			<g>
				<path class="st11" d="M16.98,44.54c-1.03,0.64-2.38,0.32-3.02-0.71c0.64,1.03,0.32,2.38-0.71,3.02
					c1.03-0.64,2.38-0.32,3.02,0.71C15.63,46.53,15.95,45.18,16.98,44.54z"/>
			</g>
			<g>
				<path class="st11" d="M86.64,53.21c-1.03,0.64-2.38,0.32-3.02-0.71c0.64,1.03,0.32,2.38-0.71,3.02
					c1.03-0.64,2.38-0.32,3.02,0.71C85.29,55.2,85.61,53.85,86.64,53.21z"/>
			</g>
		</g>
	</g>
</g>
</svg>
