<?xml version="1.0" encoding="utf-8"?>
<!-- Generator: Adobe Illustrator 23.0.2, SVG Export Plug-In . SVG Version: 6.00 Build 0)  -->
<svg version="1.1" id="Layer_1" xmlns="http://www.w3.org/2000/svg" xmlns:xlink="http://www.w3.org/1999/xlink" x="0px" y="0px"
	 viewBox="0 0 116.17 103.53" style="enable-background:new 0 0 116.17 103.53;" xml:space="preserve">
<style type="text/css">
	.st0{fill:#FF8D07;}
	.st1{fill:#FFB50F;}
	.st2{fill:#FFD66E;}
	.st3{fill:#FFFFFF;}
</style>
<g id="Comet">
	<g id="Comet_1_">
		<g id="Comet2">
			<path class="st0" d="M83.35,3.62L25.86,42.76c-0.44,0.25-0.85,0.54-1.25,0.87c-3.26,2.79-3.65,7.7-0.85,10.97
				c2.79,3.26,7.7,3.65,10.97,0.85c0.39-0.34,0.75-0.71,1.06-1.1L83.35,3.62z"/>
			<path class="st1" d="M76.76,9.26L26.37,43.6c-0.38,0.21-0.75,0.47-1.09,0.76c-2.85,2.44-3.19,6.73-0.75,9.58
				c2.44,2.85,6.73,3.19,9.58,0.75c0.34-0.29,0.65-0.62,0.92-0.96L76.76,9.26z"/>
			<path class="st2" d="M65.05,19.28L26.96,45.2c-0.29,0.16-0.56,0.35-0.82,0.58c-2.17,1.85-2.42,5.11-0.57,7.28
				c1.85,2.17,5.11,2.42,7.28,0.57c0.26-0.22,0.49-0.47,0.7-0.72L65.05,19.28z"/>
			<path class="st3" d="M32.86,46.82c1.41,1.65,1.22,4.14-0.43,5.55c-1.65,1.41-4.14,1.22-5.55-0.43c-1.41-1.65-1.22-4.14,0.43-5.55
				C28.96,44.97,31.44,45.17,32.86,46.82z"/>
		</g>
		<g id="Comet1">
			<path class="st0" d="M101.76,16.94L60.01,45.36c-0.32,0.18-0.62,0.39-0.91,0.63c-2.37,2.03-2.65,5.59-0.62,7.96
				c2.03,2.37,5.59,2.65,7.96,0.62c0.29-0.24,0.54-0.51,0.77-0.8L101.76,16.94z"/>
			<path class="st1" d="M96.97,21.03L60.38,45.97c-0.28,0.16-0.54,0.34-0.79,0.55c-2.07,1.77-2.31,4.89-0.54,6.96
				c1.77,2.07,4.89,2.31,6.96,0.54c0.25-0.21,0.47-0.45,0.67-0.7L96.97,21.03z"/>
			<path class="st2" d="M88.47,28.31L60.81,47.13c-0.21,0.12-0.41,0.26-0.6,0.42c-1.57,1.35-1.76,3.71-0.41,5.29
				c1.35,1.57,3.71,1.76,5.29,0.41c0.19-0.16,0.36-0.34,0.51-0.53L88.47,28.31z"/>
			<path class="st3" d="M65.09,48.31c1.03,1.2,0.89,3-0.31,4.03c-1.2,1.03-3,0.89-4.03-0.31c-1.03-1.2-0.89-3,0.31-4.03
				C62.26,46.97,64.06,47.11,65.09,48.31z"/>
		</g>
		<g id="Star_6_">
			<g>
				<path class="st3" d="M10.96,63.52c-0.94,0-1.71-0.76-1.71-1.71c0,0.94-0.76,1.71-1.71,1.71c0.94,0,1.71,0.76,1.71,1.71
					C9.25,64.29,10.02,63.52,10.96,63.52z"/>
			</g>
			<g>
				<path class="st3" d="M21.81,101.82c-0.94,0-1.71-0.76-1.71-1.71c0,0.94-0.76,1.71-1.71,1.71c0.94,0,1.71,0.76,1.71,1.71
					C20.1,102.59,20.87,101.82,21.81,101.82z"/>
			</g>
			<g>
				<path class="st3" d="M46.58,89.48c-0.94,0-1.71-0.76-1.71-1.71c0,0.94-0.76,1.71-1.71,1.71c0.94,0,1.71,0.76,1.71,1.71
					C44.87,90.24,45.63,89.48,46.58,89.48z"/>
			</g>
		</g>
		<g id="Star_1_">
			<g>
				<path class="st3" d="M77.1,59.37c-0.94,0-1.71-0.76-1.71-1.71c0,0.94-0.76,1.71-1.71,1.71c0.94,0,1.71,0.76,1.71,1.71
					C75.39,60.13,76.15,59.37,77.1,59.37z"/>
			</g>
			<g>
				<path class="st3" d="M87.95,97.67c-0.94,0-1.71-0.76-1.71-1.71c0,0.94-0.76,1.71-1.71,1.71c0.94,0,1.71,0.76,1.71,1.71
					C86.24,98.44,87,97.67,87.95,97.67z"/>
			</g>
			<g>
				<path class="st3" d="M112.72,85.33c-0.94,0-1.71-0.76-1.71-1.71c0,0.94-0.76,1.71-1.71,1.71c0.94,0,1.71,0.76,1.71,1.71
					C111.01,86.09,111.77,85.33,112.72,85.33z"/>
			</g>
		</g>
		<g id="Comet2_1_">
			<path class="st0" d="M112.23,28.25L63.21,75.83c-0.38,0.31-0.74,0.66-1.06,1.05c-2.69,3.25-2.23,8.07,1.03,10.76
				c3.25,2.69,8.07,2.23,10.76-1.03c0.32-0.39,0.6-0.81,0.84-1.24L112.23,28.25z"/>
			<path class="st1" d="M106.8,34.82L63.84,76.55c-0.33,0.27-0.64,0.58-0.93,0.92c-2.35,2.84-1.95,7.05,0.9,9.4
				c2.84,2.35,7.05,1.95,9.4-0.9c0.28-0.34,0.53-0.71,0.73-1.08L106.8,34.82z"/>
			<path class="st2" d="M97.16,46.49L64.69,78c-0.25,0.21-0.49,0.44-0.7,0.7c-1.78,2.16-1.48,5.36,0.68,7.14
				c2.16,1.78,5.36,1.48,7.14-0.68c0.21-0.26,0.4-0.53,0.55-0.82L97.16,46.49z"/>
			<path class="st3" d="M70.67,78.57c1.65,1.36,1.88,3.8,0.52,5.44c-1.36,1.65-3.8,1.88-5.44,0.52c-1.65-1.36-1.88-3.8-0.52-5.44
				C66.58,77.44,69.02,77.21,70.67,78.57z"/>
		</g>
	</g>
</g>
</svg>
