<?xml version="1.0" encoding="utf-8"?>
<!-- Generator: Adobe Illustrator 23.0.2, SVG Export Plug-In . SVG Version: 6.00 Build 0)  -->
<svg version="1.1" id="Layer_1" xmlns="http://www.w3.org/2000/svg" xmlns:xlink="http://www.w3.org/1999/xlink" x="0px" y="0px"
	 viewBox="0 0 147.1 32.1" style="enable-background:new 0 0 147.1 32.1;" xml:space="preserve">
<style type="text/css">
	.st0{fill:#FFFFFF;}
	.st1{enable-background:new    ;}
	.st2{fill:#D1F4FF;}
	.st3{opacity:0.1;enable-background:new    ;}
	.st4{fill:#A6CDDD;}
	.st5{opacity:0.1;}
</style>
<g id="Mars">
	<g id="Star_9_">
		<g>
			<circle class="st0" cx="1.2" cy="27.2" r="1.2"/>
		</g>
		<g>
			<path class="st0" d="M28.5,18.5c0,0.7-0.6,1.2-1.2,1.2c0.7,0,1.2,0.6,1.2,1.2c0-0.7,0.6-1.2,1.2-1.2
				C29.1,19.7,28.5,19.2,28.5,18.5z"/>
		</g>
		<g>
			<circle class="st0" cx="5.2" cy="2.6" r="2.6"/>
		</g>
	</g>
	<g class="st1">
		<path class="st0" d="M44.8,19.6c0.3,0,0.6,0.1,0.8,0.4c0.2,0.2,0.3,0.5,0.3,0.8v6c0,0.3-0.1,0.6-0.3,0.8c-0.2,0.2-0.5,0.3-0.8,0.3
			s-0.6-0.1-0.8-0.3c-0.2-0.2-0.3-0.5-0.3-0.8v-4.9h-3c-0.8,0-1.5-0.1-2-0.4c-0.6-0.3-1-0.6-1.3-1s-0.6-0.9-0.7-1.3
			s-0.2-0.9-0.2-1.4c0-0.7,0.1-1.4,0.5-2.1l0.1-0.1c0.2-0.3,0.5-0.6,0.8-0.9c0.3-0.3,0.6-0.5,1-0.7s0.9-0.2,1.5-0.3
			c0.1,0,0.2,0,0.3,0l0,0c0.3,0,0.6,0,1,0h0.1h1.9h1.1c0.3,0,0.6,0.1,0.8,0.3s0.3,0.5,0.3,0.8s-0.1,0.6-0.3,0.8s-0.5,0.3-0.8,0.3
			h-1.3c-0.1,0-0.2,0-0.3,0c-0.4,0-0.9,0-1.5,0s-0.9,0-1.1,0c-0.6,0-1,0.2-1.4,0.6s-0.5,0.8-0.5,1.3l0,0c0,0.5,0.2,1,0.5,1.3
			c0.3,0.4,0.8,0.6,1.3,0.6c0.2,0,0.6,0,1.1,0s1,0,1.4,0c0.1,0,0.3,0,0.4,0L44.8,19.6z M40.2,25.7c0.3,0,0.6,0.1,0.8,0.3
			c0.2,0.2,0.3,0.5,0.3,0.8s-0.1,0.6-0.3,0.8c-0.2,0.2-0.5,0.3-0.8,0.3h-2.7c-0.3,0-0.6-0.1-0.8-0.3c-0.2-0.2-0.3-0.5-0.3-0.8
			s0.1-0.6,0.3-0.8s0.5-0.3,0.8-0.3H40.2z"/>
		<path class="st0" d="M57,15.6c0.4,0.7,0.6,1.4,0.5,2.2c0,0.4-0.1,0.9-0.2,1.4c-0.1,0.5-0.4,0.9-0.7,1.3s-0.8,0.8-1.3,1
			c-0.6,0.3-1.2,0.4-2,0.4h-3v4.9c0,0.3-0.1,0.6-0.3,0.8c-0.2,0.2-0.5,0.3-0.8,0.3s-0.6-0.1-0.8-0.3c-0.2-0.2-0.3-0.5-0.3-0.8v-6
			c0-0.3,0.1-0.6,0.3-0.8c0.2-0.3,0.5-0.4,0.8-0.4h1.3c0.1,0,0.2,0,0.3,0c0.4,0,0.9,0,1.5,0s0.9,0,1.1,0c0.5,0,1-0.2,1.3-0.5
			c0.3-0.4,0.5-0.8,0.5-1.3l0,0c0-0.5-0.2-0.9-0.5-1.3s-0.8-0.6-1.4-0.6c-0.2,0-0.6,0-1.1,0s-1,0-1.4,0c-0.1,0-0.3,0-0.3,0h-1.3
			c-0.3,0-0.6-0.1-0.8-0.3C48.1,15.3,48,15,48,14.7s0.1-0.6,0.3-0.8s0.5-0.3,0.8-0.3h1.1h1.9h0.1c0.4,0,0.7,0,1,0l0,0
			c0.1,0,0.2,0,0.3,0c0.6,0,1.1,0.1,1.5,0.2c0.4,0.2,0.7,0.4,1,0.7C56.5,14.8,56.7,15.1,57,15.6C57,15.5,57,15.5,57,15.6
			C57,15.5,57,15.6,57,15.6z"/>
		<path class="st0" d="M69.3,26.4c0.1,0.3,0.1,0.6,0,0.8c-0.1,0.3-0.3,0.5-0.6,0.6c-0.3,0.1-0.6,0.1-0.8,0s-0.5-0.3-0.6-0.6l-4.5-10
			l-4.5,10c-0.1,0.3-0.3,0.5-0.6,0.6s-0.6,0.1-0.8,0c-0.3-0.1-0.5-0.3-0.6-0.6c-0.1-0.3-0.1-0.5,0-0.8l5.5-12.1
			c0.1-0.2,0.2-0.3,0.4-0.4c0,0,0,0,0.1-0.1l0,0c0,0,0,0,0.1,0l0,0l0,0l0,0l0,0l0,0l0,0l0,0l0,0l0,0l0,0c0,0,0,0,0.1,0s0.2,0,0.3,0
			s0.2,0,0.3,0l0,0h0.1l0,0l0,0l0,0h0.1l0,0l0,0c0.1,0,0.1,0.1,0.2,0.1c0.1,0.1,0.2,0.3,0.3,0.4L69.3,26.4z M64.1,25.6
			c0.3,0,0.6,0.1,0.8,0.3c0.2,0.2,0.3,0.5,0.3,0.8s-0.1,0.6-0.3,0.8c-0.2,0.2-0.5,0.3-0.8,0.3h-2.7c-0.3,0-0.6-0.1-0.8-0.3
			c-0.2-0.2-0.3-0.5-0.3-0.8s0.1-0.6,0.3-0.8c0.2-0.2,0.5-0.3,0.8-0.3H64.1z"/>
		<path class="st0" d="M80.3,24.4c0.3,0,0.6,0.1,0.8,0.3c0.2,0.2,0.3,0.5,0.3,0.8s-0.1,0.6-0.4,0.8c-0.1,0.1-0.1,0.1-0.2,0.1
			c-0.6,0.4-1.2,0.8-2,1c-0.7,0.2-1.5,0.4-2.3,0.4c-1.3,0-2.5-0.3-3.6-1c-1.1-0.6-1.9-1.5-2.6-2.6c-0.6-1.1-1-2.3-1-3.6
			s0.3-2.5,1-3.6c0.6-1.1,1.5-1.9,2.6-2.6c1.1-0.6,2.3-1,3.6-1c0.8,0,1.6,0.1,2.3,0.4c0.7,0.2,1.4,0.6,2,1c0.3,0.2,0.5,0.5,0.5,0.9
			c0,0.3-0.1,0.6-0.3,0.8c-0.2,0.2-0.5,0.3-0.8,0.3s-0.5-0.1-0.7-0.3c-0.8-0.6-1.8-1-2.9-1c-0.9,0-1.7,0.2-2.5,0.7
			c-0.8,0.5-1.3,1-1.8,1.8s-0.7,1.6-0.7,2.5s0.2,1.7,0.7,2.5c0.4,0.7,1,1.3,1.8,1.8s1.6,0.7,2.5,0.7c1.1,0,2.1-0.3,3-1
			C79.8,24.5,80.1,24.4,80.3,24.4z"/>
		<path class="st0" d="M84.6,15.8c-0.3,0-0.6-0.1-0.8-0.3s-0.3-0.5-0.3-0.8s0.1-0.6,0.3-0.8s0.5-0.3,0.8-0.3H92
			c0.3,0,0.6,0.1,0.8,0.3s0.3,0.5,0.3,0.8s-0.1,0.6-0.3,0.8s-0.5,0.3-0.8,0.3H84.6z M92,25.7c0.3,0,0.6,0.1,0.8,0.3s0.3,0.5,0.3,0.8
			s-0.1,0.6-0.3,0.8s-0.5,0.3-0.8,0.3h-7.4c-0.3,0-0.6-0.1-0.8-0.3s-0.3-0.5-0.3-0.8l0,0l0,0l0,0l0,0v-6l0,0l0,0l0,0
			c0-0.3,0.1-0.6,0.3-0.8c0.2-0.2,0.5-0.3,0.8-0.3h2.7c0.3,0,0.6,0.1,0.8,0.3c0.2,0.2,0.3,0.5,0.3,0.8s-0.1,0.6-0.3,0.8
			c-0.2,0.2-0.5,0.3-0.8,0.3h-1.5v3.8C85.8,25.7,92,25.7,92,25.7z"/>
		<path class="st0" d="M109.2,15.6c0.4,0.7,0.6,1.4,0.5,2.2c0,0.4-0.1,0.9-0.2,1.4s-0.4,0.9-0.7,1.3c-0.3,0.4-0.8,0.8-1.3,1
			c-0.6,0.3-1.2,0.4-2,0.4h-3v4.9c0,0.3-0.1,0.6-0.3,0.8c-0.2,0.2-0.5,0.3-0.8,0.3s-0.6-0.1-0.8-0.3s-0.3-0.5-0.3-0.8v-6
			c0-0.3,0.1-0.6,0.3-0.8c0.2-0.3,0.5-0.4,0.8-0.4h1.3c0.1,0,0.2,0,0.3,0c0.4,0,0.9,0,1.5,0s0.9,0,1.1,0c0.5,0,1-0.2,1.3-0.5
			c0.3-0.4,0.5-0.8,0.5-1.3l0,0c0-0.5-0.2-0.9-0.5-1.3s-0.8-0.6-1.3-0.6c-0.2,0-0.6,0-1.1,0s-1,0-1.4,0c-0.1,0-0.3,0-0.3,0h-1.3
			c-0.3,0-0.6-0.1-0.8-0.3c-0.2-0.2-0.3-0.5-0.3-0.8s0.1-0.6,0.3-0.8c0.2-0.2,0.5-0.3,0.8-0.3h1.1h1.9h0.1c0.4,0,0.7,0,1,0l0,0
			c0.1,0,0.2,0,0.3,0c0.6,0,1.1,0.1,1.5,0.2c0.4,0.2,0.7,0.4,1,0.7C108.7,14.8,108.9,15.1,109.2,15.6
			C109.2,15.5,109.2,15.5,109.2,15.6C109.2,15.5,109.2,15.6,109.2,15.6z"/>
		<path class="st0" d="M121.5,26.4c0.1,0.3,0.1,0.6,0,0.8c-0.1,0.3-0.3,0.5-0.6,0.6c-0.3,0.1-0.6,0.1-0.8,0
			c-0.3-0.1-0.5-0.3-0.6-0.6l-4.5-10l-4.5,10c-0.1,0.3-0.3,0.5-0.6,0.6s-0.6,0.1-0.8,0c-0.3-0.1-0.5-0.3-0.6-0.6
			c-0.1-0.3-0.1-0.5,0-0.8l5.5-12.1c0.1-0.2,0.2-0.3,0.3-0.4c0,0,0,0,0.1-0.1l0,0c0,0,0,0,0.1,0l0,0l0,0l0,0l0,0l0,0l0,0l0,0l0,0
			l0,0l0,0c0,0,0,0,0.1,0s0.2,0,0.3,0s0.2,0,0.3,0l0,0h0.1l0,0l0,0l0,0c0,0,0,0,0.1,0l0,0l0,0c0.1,0,0.1,0.1,0.2,0.1
			c0.1,0.1,0.2,0.3,0.3,0.4L121.5,26.4z M116.3,25.6c0.3,0,0.6,0.1,0.8,0.3c0.2,0.2,0.3,0.5,0.3,0.8s-0.1,0.6-0.3,0.8
			c-0.2,0.2-0.5,0.3-0.8,0.3h-2.7c-0.3,0-0.6-0.1-0.8-0.3c-0.2-0.2-0.3-0.5-0.3-0.8s0.1-0.6,0.3-0.8c0.2-0.2,0.5-0.3,0.8-0.3H116.3z
			"/>
		<path class="st0" d="M132.8,15.6c0.4,0.7,0.6,1.4,0.5,2.2c0,0.5-0.1,0.9-0.2,1.4c-0.1,0.5-0.4,0.9-0.7,1.3s-0.8,0.8-1.3,1
			c-0.6,0.3-1.2,0.4-2,0.4h-3v4.9c0,0.3-0.1,0.6-0.3,0.8c-0.2,0.2-0.5,0.3-0.8,0.3s-0.6-0.1-0.8-0.3c-0.2-0.2-0.3-0.5-0.3-0.8v-6
			c0-0.3,0.1-0.6,0.3-0.8c0.2-0.2,0.5-0.4,0.8-0.4h1.3c0.1,0,0.3,0,0.4,0c0.4,0,0.9,0,1.4,0s0.9,0,1.1,0c0.5,0,1-0.2,1.3-0.5
			s0.5-0.8,0.5-1.3l0,0c0-0.5-0.2-0.9-0.5-1.3s-0.8-0.6-1.3-0.6c-0.2,0-0.4,0-0.8,0s-0.7,0-1.1,0s-0.7,0-0.9,0c-0.1,0-0.1,0-0.1,0
			H125c-0.3,0-0.6-0.1-0.8-0.3c-0.2-0.2-0.3-0.5-0.3-0.8s0.1-0.6,0.3-0.8c0.2-0.2,0.5-0.3,0.8-0.3h1.1h1.9h0.1c0.4,0,0.7,0,1,0l0,0
			c0.1,0,0.2,0,0.3,0c0.6,0,1.1,0.1,1.5,0.3s0.7,0.4,1,0.7C132.2,14.8,132.5,15.1,132.8,15.6C132.7,15.5,132.7,15.5,132.8,15.6z
			 M131.1,24l1.9,1.9c0.2,0.2,0.3,0.5,0.3,0.8s-0.1,0.6-0.3,0.8c-0.2,0.2-0.5,0.3-0.8,0.3s-0.6-0.1-0.8-0.3l-1.9-1.9
			c-0.2-0.2-0.3-0.5-0.3-0.8s0.1-0.6,0.3-0.8c0.2-0.2,0.5-0.3,0.8-0.3S130.8,23.8,131.1,24z"/>
		<path class="st0" d="M136.5,13.5c0.3,0,0.6,0.1,0.8,0.3s0.3,0.5,0.3,0.8v12.2c0,0.3-0.1,0.6-0.3,0.8c-0.2,0.2-0.5,0.3-0.8,0.3
			s-0.6-0.1-0.8-0.3c-0.2-0.2-0.3-0.5-0.3-0.8V14.6c0-0.3,0.1-0.6,0.3-0.8S136.2,13.5,136.5,13.5z M144.8,26
			c0.2,0.3,0.3,0.6,0.2,0.9s-0.2,0.6-0.4,0.8c-0.3,0.2-0.6,0.3-0.9,0.2s-0.6-0.2-0.8-0.4l-4.7-6c-0.2-0.3-0.3-0.5-0.2-0.9
			c0-0.3,0.2-0.6,0.4-0.8c0.3-0.2,0.5-0.3,0.8-0.2c0.3,0,0.6,0.2,0.8,0.4L144.8,26z M141.6,17.6c-0.2-0.2-0.4-0.5-0.4-0.8
			s0-0.6,0.2-0.8l1.6-2.1c0.2-0.2,0.5-0.4,0.8-0.4s0.6,0,0.8,0.2s0.4,0.5,0.4,0.8s0,0.6-0.2,0.8l-1.6,2.1c-0.2,0.2-0.5,0.4-0.8,0.4
			C142.2,17.8,141.9,17.8,141.6,17.6z"/>
	</g>
	<g id="Moon_1_">
		<ellipse class="st2" cx="14" cy="17.2" rx="13" ry="13"/>
		<path class="st3" d="M18,4.8c1.8,2.2,2.9,5.1,2.9,8.1c0,7.2-5.8,13-13,13c-1.4,0-2.8-0.2-4-0.6c2.4,3,6.1,4.9,10.2,4.9
			c7.2,0,13-5.8,13-13C27,11.4,23.2,6.5,18,4.8z"/>
		<circle class="st4" cx="14.9" cy="15.4" r="2.5"/>
		<g class="st5">
			<path d="M15.5,13.6c0.5,0,1,0.2,1.5,0.5c-0.4-0.7-1.2-1.1-2.1-1.1c-1.4,0-2.5,1.1-2.5,2.5c0,0.8,0.4,1.6,1,2
				C13.2,17,13,16.6,13,16.1C13,14.7,14.1,13.6,15.5,13.6z"/>
		</g>
		<circle class="st4" cx="20.8" cy="11.3" r="1.7"/>
		<g class="st5">
			<path d="M21.3,10c0.4,0,0.7,0.1,1,0.3c-0.3-0.5-0.8-0.8-1.4-0.8c-0.9,0-1.7,0.8-1.7,1.7c0,0.6,0.3,1.1,0.7,1.4
				c-0.2-0.3-0.3-0.6-0.3-0.9C19.6,10.8,20.3,10,21.3,10z"/>
		</g>
		<path class="st4" d="M17,6.6c0,0.6-0.5,1.1-1.1,1.1s-1.1-0.5-1.1-1.1s0.5-1.1,1.1-1.1S17,6,17,6.6z"/>
		<g class="st5">
			<path d="M16.1,5.8c0.2,0,0.5,0.1,0.6,0.2c-0.2-0.3-0.5-0.5-0.9-0.5c-0.6,0-1.1,0.5-1.1,1.1c0,0.4,0.2,0.7,0.5,0.9
				C15.1,7.3,15,7.1,15,6.9C15,6.3,15.5,5.8,16.1,5.8z"/>
		</g>
		<ellipse class="st4" cx="6.2" cy="19.2" rx="1.7" ry="1.7"/>
		<g class="st5">
			<path d="M6.6,17.9c0.4,0,0.7,0.1,1,0.3c-0.3-0.5-0.8-0.8-1.4-0.8c-0.9,0-1.7,0.8-1.7,1.7c0,0.6,0.3,1.1,0.7,1.4
				C5,20.3,4.9,20,4.9,19.6C4.9,18.7,5.6,17.9,6.6,17.9z"/>
		</g>
		<path class="st4" d="M13.7,23.3c0,0.9-0.8,1.7-1.7,1.7s-1.7-0.8-1.7-1.7c0-0.9,0.8-1.7,1.7-1.7C13,21.6,13.7,22.4,13.7,23.3z"/>
		<g class="st5">
			<path d="M12.5,22c0.4,0,0.7,0.1,1,0.3c-0.3-0.5-0.8-0.8-1.4-0.8c-0.9,0-1.7,0.8-1.7,1.7c0,0.6,0.3,1.1,0.7,1.4
				c-0.2-0.3-0.3-0.6-0.3-0.9C10.8,22.8,11.5,22,12.5,22z"/>
		</g>
		<path class="st4" d="M21.7,24.4c0,0.9-0.8,1.7-1.7,1.7c-0.9,0-1.7-0.8-1.7-1.7c0-0.9,0.8-1.7,1.7-1.7
			C20.9,22.7,21.7,23.5,21.7,24.4z"/>
		<g class="st5">
			<path d="M20.4,23.2c0.4,0,0.7,0.1,1,0.3c-0.3-0.5-0.8-0.8-1.4-0.8c-0.9,0-1.7,0.8-1.7,1.7c0,0.6,0.3,1.1,0.7,1.4
				c-0.2-0.3-0.3-0.6-0.3-0.9C18.7,23.9,19.5,23.2,20.4,23.2z"/>
		</g>
		<path class="st4" d="M24.2,17.4c0,0.5-0.4,1-1,1c-0.5,0-1-0.4-1-1c0-0.5,0.4-1,1-1C23.8,16.4,24.2,16.8,24.2,17.4z"/>
		<g class="st5">
			<path d="M23.5,16.7c0.2,0,0.4,0.1,0.6,0.2c-0.2-0.3-0.5-0.4-0.8-0.4c-0.5,0-1,0.4-1,1c0,0.3,0.2,0.6,0.4,0.8
				c-0.1-0.2-0.2-0.3-0.2-0.5C22.5,17.1,23,16.7,23.5,16.7z"/>
		</g>
		<path class="st4" d="M9.8,9.6c0,0.5-0.4,1-1,1c-0.5,0-1-0.4-1-1c0-0.5,0.4-1,1-1C9.3,8.6,9.8,9,9.8,9.6z"/>
		<g class="st5">
			<path d="M9,8.9c0.2,0,0.4,0.1,0.6,0.2C9.4,8.8,9.1,8.6,8.8,8.6c-0.5,0-1,0.4-1,1c0,0.3,0.2,0.6,0.4,0.8C8.1,10.2,8.1,10,8.1,9.8
				C8.1,9.3,8.5,8.9,9,8.9z"/>
		</g>
		<path class="st4" d="M4,12.3c0,0.3-0.2,0.5-0.5,0.5S3,12.6,3,12.3s0.2-0.5,0.5-0.5S4,12,4,12.3z"/>
		<g class="st5">
			<path d="M3.7,11.9c0.1,0,0.2,0,0.3,0.1c-0.1-0.1-0.2-0.2-0.4-0.2C3.2,11.8,3,12,3,12.3c0,0.2,0.1,0.3,0.2,0.4
				c-0.1-0.1-0.1-0.2-0.1-0.3C3.1,12.2,3.4,11.9,3.7,11.9z"/>
		</g>
		<circle class="st4" cx="25.8" cy="20.4" r="0.5"/>
		<g class="st5">
			<path d="M25.9,20c0.1,0,0.2,0,0.3,0.1c-0.1-0.1-0.2-0.2-0.4-0.2c-0.3,0-0.5,0.2-0.5,0.5c0,0.2,0.1,0.3,0.2,0.4
				c-0.1-0.1-0.1-0.2-0.1-0.3C25.4,20.2,25.6,20,25.9,20z"/>
		</g>
		<path class="st4" d="M25.8,13.8c0,0.3-0.2,0.5-0.5,0.5s-0.5-0.2-0.5-0.5s0.2-0.5,0.5-0.5C25.6,13.3,25.8,13.5,25.8,13.8z"/>
		<g class="st5">
			<path d="M25.4,13.5c0.1,0,0.2,0,0.3,0.1c-0.1-0.1-0.2-0.2-0.4-0.2c-0.3,0-0.5,0.2-0.5,0.5c0,0.2,0.1,0.3,0.2,0.4
				c-0.1-0.1-0.1-0.2-0.1-0.3C24.9,13.7,25.1,13.5,25.4,13.5z"/>
		</g>
		<path class="st4" d="M6.1,23.5c0,0.3-0.2,0.5-0.5,0.5s-0.5-0.2-0.5-0.5S5.3,23,5.6,23S6.1,23.3,6.1,23.5z"/>
		<g class="st5">
			<path d="M5.8,23.2c0.1,0,0.2,0,0.3,0.1C6,23.1,5.8,23,5.6,23c-0.3,0-0.5,0.2-0.5,0.5c0,0.2,0.1,0.3,0.2,0.4
				c-0.1-0.1-0.1-0.2-0.1-0.3C5.3,23.4,5.5,23.2,5.8,23.2z"/>
		</g>
		<path class="st4" d="M10.9,27.1c0,0.3-0.2,0.5-0.5,0.5s-0.5-0.2-0.5-0.5s0.2-0.5,0.5-0.5C10.6,26.6,10.9,26.8,10.9,27.1z"/>
		<g class="st5">
			<path d="M10.5,26.7c0.1,0,0.2,0,0.3,0.1c-0.1-0.1-0.2-0.2-0.4-0.2c-0.3,0-0.5,0.2-0.5,0.5c0,0.2,0.1,0.3,0.2,0.4
				C10,27.4,10,27.3,10,27.2C10,26.9,10.2,26.7,10.5,26.7z"/>
		</g>
	</g>
</g>
</svg>
