<?xml version="1.0" encoding="utf-8"?>
<!-- Generator: Adobe Illustrator 23.0.2, SVG Export Plug-In . SVG Version: 6.00 Build 0)  -->
<svg version="1.1" id="Layer_1" xmlns="http://www.w3.org/2000/svg" xmlns:xlink="http://www.w3.org/1999/xlink" x="0px" y="0px"
	 viewBox="0 0 116.17 103.53" style="enable-background:new 0 0 116.17 103.53;" xml:space="preserve">
<style type="text/css">
	.st0{fill:#FFFFFF;}
</style>
<path class="st0" d="M58.09,10.39c-23.38,0-42.33,18.95-42.33,42.33s18.95,42.33,42.33,42.33s42.33-18.95,42.33-42.33
	C100.41,29.34,81.46,10.39,58.09,10.39z M81.24,48.85c-2.2,6.75-5.73,12.77-9.75,18.48c-1.35,1.92-2.76,3.8-4.19,5.67
	c-1.27,1.66-2.56,3.31-3.86,4.95c-1.68,2.15-3.37,4.29-4.99,6.45h-0.69c-1.65-2.13-3.34-4.26-5.03-6.39
	c-1.29-1.64-2.59-3.28-3.86-4.94c-1.44-1.88-2.85-3.78-4.21-5.72c-3.85-5.5-7.24-11.3-9.49-17.71
	c-4.16-13.47,7.63-27.93,21.29-28.62h3.17C73.02,21.71,84.61,35.48,81.24,48.85z"/>
<path class="st0" d="M57.46,34.32c-5.47,0-9.91,4.44-9.91,9.91s4.44,9.91,9.91,9.91s9.91-4.44,9.91-9.91
	C67.38,38.75,62.94,34.32,57.46,34.32z"/>
</svg>
