<?xml version="1.0" encoding="utf-8"?>
<!-- Generator: Adobe Illustrator 23.0.2, SVG Export Plug-In . SVG Version: 6.00 Build 0)  -->
<svg version="1.1" id="Layer_1" xmlns="http://www.w3.org/2000/svg" xmlns:xlink="http://www.w3.org/1999/xlink" x="0px" y="0px"
	 viewBox="0 0 116.17 103.53" style="enable-background:new 0 0 116.17 103.53;" xml:space="preserve">
<style type="text/css">
	.st0{fill:#FFFFFF;}
</style>
<g>
	<g>
		<path class="st0" d="M59.56,35.28c-2.08,0-3.46,0.2-4.25,0.4v13.37c0.9,0.2,1.97,0.27,3.45,0.27c5.44,0,8.8-2.76,8.8-7.39
			C67.55,37.76,64.66,35.28,59.56,35.28z"/>
		<path class="st0" d="M90.72,8.49H29.84c-5.38,0-9.73,4.36-9.73,9.73v62.69c0,5.37,4.36,9.73,9.73,9.73h60.88
			c5.38,0,9.73-4.36,9.73-9.73V18.22C100.46,12.85,96.1,8.49,90.72,8.49z M94.46,79.36c0,2.93-2.37,5.29-5.29,5.29H31.29
			c-2.93,0-5.3-2.37-5.3-5.29V19.9c0-2.92,2.37-5.29,5.3-5.29h57.87c2.93,0,5.29,2.37,5.29,5.29L94.46,79.36L94.46,79.36z"/>
		<path class="st0" d="M89.16,18.34H31.29c-0.86,0-1.56,0.7-1.56,1.56v59.46c0,0.86,0.7,1.56,1.56,1.56h57.87
			c0.86,0,1.56-0.7,1.56-1.56V19.9C90.72,19.04,90.03,18.34,89.16,18.34z M73.55,52.41c-3.49,3.29-8.68,4.77-14.73,4.77
			c-1.34,0-2.49-0.07-3.51-0.2v16.24H45.23V28.49c3.17-0.54,7.57-0.94,13.82-0.94c6.32,0,10.81,1.21,13.84,3.63
			c2.89,2.28,4.83,6.05,4.83,10.48C77.73,46.1,76.24,49.86,73.55,52.41z"/>
	</g>
</g>
</svg>
