<?xml version="1.0" encoding="utf-8"?>
<!-- Generator: Adobe Illustrator 23.0.2, SVG Export Plug-In . SVG Version: 6.00 Build 0)  -->
<svg version="1.1" id="Layer_1" xmlns="http://www.w3.org/2000/svg" xmlns:xlink="http://www.w3.org/1999/xlink" x="0px" y="0px"
	 viewBox="0 0 35.69 89.23" style="enable-background:new 0 0 35.69 89.23;" xml:space="preserve">
<style type="text/css">
	.st0{fill:#FFFFFF;}
	.st1{fill:#FFDF3C;}
	.st2{fill:#FF8948;}
	.st3{fill:#E6E7E8;}
	.st4{fill:#939598;}
	.st5{fill:#58595B;}
	.st6{fill:#808285;}
	.st7{fill:#E03643;}
	.st8{fill:#A3DFFF;}
	.st9{fill:#53A2D3;}
	.st10{fill:#F1F2F2;}
	.st11{fill:#D1D3D4;}
	.st12{fill:#3A3A3A;}
</style>
<g id="Space_Robot_3_">
	<g id="Spacecraft_2_">
		<g id="Star_19_">
			<g>
				<circle class="st0" cx="4.94" cy="6.86" r="4.26"/>
			</g>
			<g>
				<path class="st0" d="M35.83,58.37c-1.38,0-2.5-1.12-2.5-2.5c0,1.38-1.12,2.5-2.5,2.5c1.38,0,2.5,1.12,2.5,2.5
					C33.33,59.49,34.45,58.37,35.83,58.37z"/>
			</g>
			<g>
				<path class="st0" d="M34.74,13.61c-1.38,0-2.5-1.12-2.5-2.5c0,1.38-1.12,2.5-2.5,2.5c1.38,0,2.5,1.12,2.5,2.5
					C32.24,14.73,33.36,13.61,34.74,13.61z"/>
			</g>
			<g>
				<path class="st0" d="M8.7,82.22c-1.38,0-2.5-1.12-2.5-2.5c0,1.38-1.12,2.5-2.5,2.5c1.38,0,2.5,1.12,2.5,2.5
					C6.19,83.34,7.32,82.22,8.7,82.22z"/>
			</g>
		</g>
		<g id="Smoke">
			<polygon class="st0" points="18.47,46.39 14.14,46.39 13.24,59.04 18.47,59.04 			"/>
			<polygon class="st0" points="18.47,46.39 22.8,46.39 23.7,59.04 18.47,59.04 			"/>
			<path class="st0" d="M19.34,52.85c0,1.35-1.09,2.44-2.44,2.44c-1.35,0-2.44-1.09-2.44-2.44c0-1.35,1.09-2.44,2.44-2.44
				C18.25,50.41,19.34,51.51,19.34,52.85z"/>
			<path class="st0" d="M22.1,54.17c0,1.35-1.09,2.44-2.44,2.44c-1.35,0-2.44-1.09-2.44-2.44c0-1.35,1.09-2.44,2.44-2.44
				C21.01,51.73,22.1,52.82,22.1,54.17z"/>
			<path class="st0" d="M19.34,56.61c0,1.35-1.09,2.44-2.44,2.44c-1.35,0-2.44-1.09-2.44-2.44c0-1.35,1.09-2.44,2.44-2.44
				C18.25,54.17,19.34,55.26,19.34,56.61z"/>
			<path class="st0" d="M18.74,59.74c0,1.35-1.09,2.44-2.44,2.44s-2.44-1.09-2.44-2.44c0-1.35,1.09-2.44,2.44-2.44
				S18.74,58.39,18.74,59.74z"/>
			<path class="st0" d="M23.07,59.74c0,1.35-1.09,2.44-2.44,2.44c-1.35,0-2.44-1.09-2.44-2.44c0-1.35,1.09-2.44,2.44-2.44
				C21.98,57.3,23.07,58.39,23.07,59.74z"/>
			<path class="st0" d="M22.37,57.3c0,1.35-1.09,2.44-2.44,2.44c-1.35,0-2.44-1.09-2.44-2.44s1.09-2.44,2.44-2.44
				C21.28,54.87,22.37,55.96,22.37,57.3z"/>
			<path class="st0" d="M22.37,61.78c0,1.35-1.09,2.44-2.44,2.44c-1.35,0-2.44-1.09-2.44-2.44c0-1.35,1.09-2.44,2.44-2.44
				C21.28,59.34,22.37,60.43,22.37,61.78z"/>
			<path class="st0" d="M24.81,59.74c0,1.35-1.09,2.44-2.44,2.44c-1.35,0-2.44-1.09-2.44-2.44c0-1.35,1.09-2.44,2.44-2.44
				C23.72,57.3,24.81,58.39,24.81,59.74z"/>
			<path class="st0" d="M15.96,59.04c0,1.35-1.09,2.44-2.44,2.44c-1.35,0-2.44-1.09-2.44-2.44c0-1.35,1.09-2.44,2.44-2.44
				C14.87,56.61,15.96,57.7,15.96,59.04z"/>
			<path class="st0" d="M15.68,62.97c0,1.35-1.09,2.44-2.44,2.44c-1.35,0-2.44-1.09-2.44-2.44c0-1.35,1.09-2.44,2.44-2.44
				C14.59,60.53,15.68,61.62,15.68,62.97z"/>
			<path class="st0" d="M14,66.3c0,1.09-0.89,1.98-1.98,1.98s-1.98-0.89-1.98-1.98c0-1.09,0.89-1.98,1.98-1.98S14,65.2,14,66.3z"/>
			<path class="st0" d="M19.34,63.32c0,1.35-1.09,2.44-2.44,2.44c-1.35,0-2.44-1.09-2.44-2.44c0-1.35,1.09-2.44,2.44-2.44
				C18.25,60.88,19.34,61.97,19.34,63.32z"/>
			<path class="st0" d="M19.97,68.51c0,2.37-1.92,4.29-4.29,4.29c-2.37,0-4.29-1.92-4.29-4.29c0-2.37,1.92-4.29,4.29-4.29
				C18.05,64.21,19.97,66.14,19.97,68.51z"/>
			<path class="st0" d="M27.52,65.76c0,2.65-2.15,4.8-4.8,4.8c-2.65,0-4.8-2.15-4.8-4.8c0-2.65,2.15-4.8,4.8-4.8
				C25.37,60.95,27.52,63.1,27.52,65.76z"/>
		</g>
		<g id="Fire">
			<path class="st1" d="M24.51,52.94c0,3.32-2.69,13.92-6.01,13.92s-6.01-10.6-6.01-13.92c0-3.32,2.69-6.01,6.01-6.01
				S24.51,49.62,24.51,52.94z"/>
			<path class="st2" d="M22.73,51.98c0,2.34-1.89,9.79-4.23,9.79c-2.34,0-4.23-7.46-4.23-9.79c0-2.33,1.89-4.23,4.23-4.23
				C20.83,47.76,22.73,49.65,22.73,51.98z"/>
		</g>
		<g id="Spacecraft_1_">
			<g>
				<path class="st3" d="M33.01,31.23l-5.16-4.38c-0.44-0.37-0.94-1.13-1.12-1.69l-1.97-6.29c-0.17-0.55-0.59-1.06-0.93-1.12
					c-0.02,0-0.04-0.01-0.06-0.01v0h-0.55v0.94v1.96v18.75v3.22c0,0.58,0.45,0.91,1.01,0.75l8.57-2.61
					c0.55-0.17,1.01-0.78,1.01-1.36v-6.42C33.81,32.38,33.45,31.6,33.01,31.23z"/>
				<path class="st3" d="M13.3,17.74c-0.02,0-0.04,0-0.06,0.01c-0.34,0.07-0.75,0.57-0.93,1.12l-1.97,6.29
					c-0.17,0.55-0.68,1.31-1.12,1.69l-5.16,4.38c-0.44,0.37-0.8,1.16-0.8,1.73v6.42c0,0.58,0.45,1.19,1.01,1.36l8.56,2.61
					c0.55,0.17,1.01-0.17,1.01-0.75v-3.22V20.63v-1.96v-0.94L13.3,17.74L13.3,17.74z"/>
			</g>
			<path class="st4" d="M23.24,42.6c0,0.58,0.45,0.91,1.01,0.75l8.57-2.61c0.55-0.17,1.01-0.78,1.01-1.36H23.24V42.6z"/>
			<path class="st4" d="M4.28,40.74l8.56,2.61c0.55,0.17,1.01-0.17,1.01-0.75v-3.22H3.28C3.28,39.96,3.73,40.58,4.28,40.74z"/>
			<path class="st5" d="M18.55,45.86c0,0.29-0.24,0.53-0.53,0.53h-3.64c-0.29,0-0.53-0.24-0.53-0.53v-2.21
				c0-0.29,0.24-0.53,0.53-0.53h3.64c0.29,0,0.53,0.24,0.53,0.53V45.86z"/>
			<path class="st5" d="M23.24,45.86c0,0.29-0.24,0.53-0.53,0.53h-3.64c-0.29,0-0.53-0.24-0.53-0.53v-2.21
				c0-0.29,0.24-0.53,0.53-0.53h3.64c0.29,0,0.53,0.24,0.53,0.53V45.86z"/>
			<path class="st6" d="M20.89,45.86c0,0.29-0.24,0.53-0.53,0.53h-3.64c-0.29,0-0.53-0.24-0.53-0.53v-2.21
				c0-0.29,0.24-0.53,0.53-0.53h3.64c0.29,0,0.53,0.24,0.53,0.53V45.86z"/>
			<rect x="13.86" y="13.61" class="st0" width="9.38" height="30.04"/>
			<polygon class="st7" points="32.24,36.01 31.26,35.86 30.83,34.98 30.39,35.86 29.42,36.01 30.12,36.69 29.96,37.66 30.83,37.21 
				31.7,37.66 31.53,36.69 			"/>
			<path class="st4" d="M18.55,6.86c-3.22,0-4.69,6.75-4.69,6.75h4.69h4.69C23.24,13.61,21.76,6.86,18.55,6.86z"/>
			<g>
				<path class="st8" d="M18.55,15.16c-1.72,0-3.12,1.4-3.12,3.12h6.25C21.67,16.56,20.27,15.16,18.55,15.16z"/>
			</g>
			<path class="st9" d="M7.45,36.32c0,0.69-0.56,1.26-1.26,1.26c-0.69,0-1.26-0.56-1.26-1.26c0-0.69,0.56-1.26,1.26-1.26
				C6.89,35.07,7.45,35.63,7.45,36.32z"/>
			<rect x="15.42" y="18.28" class="st10" width="6.25" height="21.1"/>
			<path class="st11" d="M19.35,44.07c0,0.29,0.24,0.53,0.53,0.53h3.64c0.29,0,0.53-0.24,0.53-0.53v-3.58
				c0-0.29-0.21-0.64-0.47-0.77l-2.26-1.19c-0.26-0.14-0.7-0.25-0.99-0.25h-0.45c-0.29,0-0.53,0.24-0.53,0.53V44.07z"/>
			<path class="st11" d="M17.75,44.07c0,0.29-0.24,0.53-0.53,0.53h-3.64c-0.29,0-0.53-0.24-0.53-0.53v-3.58
				c0-0.29,0.21-0.64,0.47-0.77l2.26-1.19c0.26-0.14,0.7-0.25,0.99-0.25h0.45c0.29,0,0.53,0.24,0.53,0.53V44.07z"/>
			<path class="st12" d="M19.35,37.93c0-0.29-0.24-0.53-0.53-0.53h-0.55c-0.29,0-0.53,0.24-0.53,0.53v6.14
				c0,0.29,0.24,0.53,0.53,0.53h0.55c0.29,0,0.53-0.24,0.53-0.53V37.93z"/>
		</g>
	</g>
</g>
</svg>
