<?xml version="1.0" encoding="utf-8"?>
<!-- Generator: Adobe Illustrator 23.0.2, SVG Export Plug-In . SVG Version: 6.00 Build 0)  -->
<svg version="1.1" id="Layer_1" xmlns="http://www.w3.org/2000/svg" xmlns:xlink="http://www.w3.org/1999/xlink" x="0px" y="0px"
	 viewBox="0 0 73.9 83.07" style="enable-background:new 0 0 73.9 83.07;" xml:space="preserve">
<style type="text/css">
	.st0{fill:#FFFFFF;}
	.st1{fill:#53A2D3;}
	.st2{fill:#BCBEC0;}
	.st3{fill:#E6E7E8;}
</style>
<g id="Satellite">
	<g id="Satellite_2_">
		<g id="Satellite_1_">
			
				<rect x="54.26" y="40" transform="matrix(0.5788 -0.8155 0.8155 0.5788 -15.6767 71.2382)" class="st0" width="13.72" height="21.6"/>
			
				<rect x="51.33" y="43.18" transform="matrix(0.5788 -0.8155 0.8155 0.5788 -15.0151 66.5575)" class="st1" width="11.18" height="9.27"/>
			
				<rect x="59.73" y="49.14" transform="matrix(0.5788 -0.8155 0.8155 0.5788 -16.338 75.9195)" class="st1" width="11.18" height="9.27"/>
			
				<rect x="14.89" y="12.05" transform="matrix(0.5788 -0.8155 0.8155 0.5788 -9.4712 27.3559)" class="st0" width="13.72" height="21.6"/>
			
				<rect x="11.96" y="15.23" transform="matrix(0.5788 -0.8155 0.8155 0.5788 -8.8095 22.6759)" class="st1" width="11.18" height="9.27"/>
			
				<rect x="20.35" y="21.19" transform="matrix(0.5788 -0.8155 0.8155 0.5788 -10.1332 32.0356)" class="st1" width="11.18" height="9.27"/>
			
				<rect x="6.55" y="23.79" transform="matrix(0.5788 -0.8155 0.8155 0.5788 -22.5536 25.5056)" class="st0" width="13.72" height="21.6"/>
			
				<rect x="3.62" y="26.97" transform="matrix(0.5788 -0.8155 0.8155 0.5788 -21.8921 20.8271)" class="st1" width="11.18" height="9.27"/>
			
				<rect x="12.02" y="32.93" transform="matrix(0.5788 -0.8155 0.8155 0.5788 -23.2156 30.1867)" class="st1" width="11.18" height="9.27"/>
			
				<rect x="45.93" y="51.73" transform="matrix(0.5788 -0.8155 0.8155 0.5788 -28.7589 69.3883)" class="st0" width="13.72" height="21.6"/>
			
				<rect x="43" y="54.92" transform="matrix(0.5788 -0.8155 0.8155 0.5788 -28.097 64.7098)" class="st1" width="11.18" height="9.27"/>
			
				<rect x="51.4" y="60.88" transform="matrix(0.5788 -0.8155 0.8155 0.5788 -29.4205 74.0706)" class="st1" width="11.18" height="9.27"/>
			<path class="st2" d="M23.7,58.89c0.55-0.77,1.62-0.95,2.39-0.41c0.77,0.55,0.95,1.62,0.41,2.39c-0.55,0.77-1.62,0.95-2.39,0.4
				C23.34,60.73,23.16,59.66,23.7,58.89z"/>
			<path class="st2" d="M26.34,53.59c0.84-1.18,2.48-1.46,3.67-0.62c1.18,0.84,1.46,2.48,0.62,3.67c-0.84,1.18-2.48,1.46-3.67,0.62
				C25.78,56.42,25.5,54.77,26.34,53.59z"/>
			
				<rect x="23.88" y="55.45" transform="matrix(0.5788 -0.8155 0.8155 0.5788 -34.3877 46.2348)" class="st2" width="7.37" height="1.91"/>
			
				<rect x="45.42" y="25.1" transform="matrix(0.5789 -0.8154 0.8154 0.5789 -0.569 51.0152)" class="st2" width="7.37" height="1.91"/>
			
				<rect x="50.28" y="20.16" transform="matrix(0.5789 -0.8154 0.8154 0.5789 2.7801 51.489)" class="st2" width="1.91" height="5.78"/>
			
				<rect x="22.83" y="35.69" transform="matrix(0.5788 -0.8155 0.8155 0.5788 -20.7819 48.1361)" class="st0" width="26.76" height="17"/>
			<polygon class="st2" points="45.98,53.47 42.03,50.67 42.66,49.7 46.61,52.5 			"/>
			
				<rect x="39.12" y="55.67" transform="matrix(0.5788 -0.8155 0.8155 0.5788 -30.6558 56.8261)" class="st2" width="1.11" height="4.84"/>
			<polygon class="st2" points="20.22,43.65 24.17,46.45 23.52,47.3 19.57,44.5 			"/>
			<polygon class="st2" points="24.85,37.06 28.8,39.86 28.17,40.83 24.22,38.02 			"/>
			
				<rect x="52.1" y="37.45" transform="matrix(0.5788 -0.8155 0.8155 0.5788 -10.3359 59.7409)" class="st2" width="1.11" height="4.84"/>
			
				<rect x="47.47" y="43.99" transform="matrix(0.5788 -0.8155 0.8155 0.5788 -17.6176 58.7096)" class="st2" width="1.11" height="4.84"/>
			<polygon class="st2" points="28.56,31.91 32.51,34.72 31.85,35.56 27.9,32.76 			"/>
			<polygon class="st2" points="33.19,25.38 37.14,28.18 36.49,29.03 32.54,26.22 			"/>
			<path class="st0" d="M50.88,38.19c-2.72,3.83-8.02,4.73-11.85,2.01c-3.83-2.72-4.73-8.02-2.01-11.85
				c2.72-3.83,8.02-4.73,11.85-2.01C52.7,29.06,53.6,34.37,50.88,38.19z"/>
			<g>
				
					<rect x="13.79" y="62.31" transform="matrix(0.5787 -0.8156 0.8156 0.5787 -49.6296 40.1088)" class="st2" width="0.42" height="11.56"/>
			</g>
			<g>
				
					<rect x="6.91" y="60.12" transform="matrix(0.5789 -0.8154 0.8154 0.5789 -43.8498 35.7515)" class="st2" width="11.56" height="0.42"/>
			</g>
			<g>
				
					<rect x="9.21" y="63.57" transform="matrix(0.9859 -0.167 0.167 0.9859 -10.443 3.3999)" class="st2" width="11.56" height="0.42"/>
			</g>
			<g>
				<path class="st0" d="M25.74,61.95c-0.86-5.09-5.69-8.52-10.78-7.65l3.13,18.44C23.18,71.87,26.6,67.04,25.74,61.95z"/>
			</g>
			<path class="st0" d="M9.08,63.51c0.68-0.12,1.33,0.34,1.45,1.03c0.12,0.68-0.34,1.33-1.03,1.45c-0.68,0.12-1.33-0.34-1.45-1.03
				C7.94,64.27,8.4,63.62,9.08,63.51z"/>
			<path class="st3" d="M38.85,35.91c0.61-0.86,1.81-1.06,2.67-0.45l1.17,0.83c0.86,0.61,1.06,1.81,0.45,2.67l-9.66,13.61
				c-0.61,0.86-1.81,1.06-2.67,0.45l-1.17-0.83c-0.86-0.61-1.06-1.81-0.45-2.67L38.85,35.91z"/>
		</g>
		<g id="Star_15_">
			<g>
				<path class="st0" d="M21.11-1.13c-1,0.62-2.32,0.31-2.94-0.69c0.62,1,0.31,2.32-0.69,2.94c1-0.62,2.32-0.31,2.94,0.69
					C19.8,0.81,20.11-0.5,21.11-1.13z"/>
			</g>
			<g>
				<path class="st0" d="M67.54,39.1c-0.74,0.46-1.72,0.23-2.18-0.51c0.46,0.74,0.23,1.72-0.51,2.18c0.74-0.46,1.72-0.23,2.18,0.51
					C66.57,40.54,66.8,39.56,67.54,39.1z"/>
			</g>
			<g>
				<path class="st0" d="M-2.95,40.63c-1,0.62-2.32,0.31-2.94-0.69c0.62,1,0.31,2.32-0.69,2.94c1-0.62,2.32-0.31,2.94,0.69
					C-4.26,42.57-3.95,41.25-2.95,40.63z"/>
			</g>
			<g>
				<path class="st0" d="M64.98,49.08c-1,0.62-2.32,0.31-2.94-0.69c0.62,1,0.31,2.32-0.69,2.94c1-0.62,2.32-0.31,2.94,0.69
					C63.66,51.03,63.97,49.71,64.98,49.08z"/>
			</g>
		</g>
	</g>
</g>
</svg>
