<?xml version="1.0" encoding="utf-8"?>
<!-- Generator: Adobe Illustrator 23.0.2, SVG Export Plug-In . SVG Version: 6.00 Build 0)  -->
<svg version="1.1" id="Layer_1" xmlns="http://www.w3.org/2000/svg" xmlns:xlink="http://www.w3.org/1999/xlink" x="0px" y="0px"
	 viewBox="0 0 116.17 103.53" style="enable-background:new 0 0 116.17 103.53;" xml:space="preserve">
<style type="text/css">
	.st0{fill:#FFFFFF;}
	.st1{fill:#FFDF3C;}
	.st2{fill:#FF8948;}
	.st3{fill:#E03643;}
	.st4{fill:#FF4F54;}
	.st5{fill:#002C40;}
	.st6{fill:#EDEDED;}
	.st7{fill:#BAE3FF;}
	.st8{opacity:0.1;}
</style>
<g id="Rocket">
	<g id="Rocket_1_">
		<g id="Star_13_">
			<g>
				<path class="st0" d="M20.94,82.63c-0.86,0-1.56-0.7-1.56-1.56c0,0.86-0.7,1.56-1.56,1.56c0.86,0,1.56,0.7,1.56,1.56
					C19.38,83.32,20.08,82.63,20.94,82.63z"/>
			</g>
			<g>
				<circle class="st0" cx="46.34" cy="87.76" r="1.56"/>
			</g>
			<g>
				<path class="st0" d="M54.67,71.41c-0.86,0-1.56-0.7-1.56-1.56c0,0.86-0.7,1.56-1.56,1.56c0.86,0,1.56,0.7,1.56,1.56
					C53.11,72.1,53.81,71.41,54.67,71.41z"/>
			</g>
		</g>
		<g id="Rocket_2_">
			<g>
				<polygon class="st0" points="57.94,64.39 52.07,64.39 50.86,81.53 57.94,81.53 				"/>
				<polygon class="st0" points="57.94,64.39 63.81,64.39 65.02,81.53 57.94,81.53 				"/>
				<path class="st0" d="M59.12,73.15c0,1.82-1.48,3.3-3.3,3.3c-1.82,0-3.3-1.48-3.3-3.3c0-1.82,1.48-3.3,3.3-3.3
					C57.64,69.85,59.12,71.33,59.12,73.15z"/>
				<path class="st0" d="M62.86,74.93c0,1.82-1.48,3.3-3.3,3.3c-1.82,0-3.3-1.48-3.3-3.3c0-1.82,1.48-3.3,3.3-3.3
					C61.38,71.63,62.86,73.11,62.86,74.93z"/>
				<path class="st0" d="M59.12,78.23c0,1.82-1.48,3.3-3.3,3.3c-1.82,0-3.3-1.48-3.3-3.3c0-1.82,1.48-3.3,3.3-3.3
					C57.64,74.93,59.12,76.41,59.12,78.23z"/>
				<path class="st0" d="M58.31,82.48c0,1.82-1.48,3.3-3.3,3.3c-1.82,0-3.3-1.48-3.3-3.3c0-1.82,1.48-3.3,3.3-3.3
					C56.83,79.18,58.31,80.65,58.31,82.48z"/>
				<path class="st0" d="M64.17,82.48c0,1.82-1.48,3.3-3.3,3.3c-1.82,0-3.3-1.48-3.3-3.3c0-1.82,1.48-3.3,3.3-3.3
					C62.69,79.18,64.17,80.65,64.17,82.48z"/>
				<path class="st0" d="M63.23,79.18c0,1.82-1.48,3.3-3.3,3.3c-1.82,0-3.3-1.48-3.3-3.3c0-1.82,1.48-3.3,3.3-3.3
					C61.75,75.88,63.23,77.35,63.23,79.18z"/>
				<path class="st0" d="M63.23,85.24c0,1.82-1.48,3.3-3.3,3.3c-1.82,0-3.3-1.48-3.3-3.3c0-1.82,1.48-3.3,3.3-3.3
					C61.75,81.94,63.23,83.41,63.23,85.24z"/>
				<path class="st0" d="M66.53,82.48c0,1.82-1.48,3.3-3.3,3.3c-1.82,0-3.3-1.48-3.3-3.3c0-1.82,1.48-3.3,3.3-3.3
					C65.05,79.18,66.53,80.65,66.53,82.48z"/>
				<path class="st0" d="M54.54,81.53c0,1.82-1.48,3.3-3.3,3.3c-1.82,0-3.3-1.48-3.3-3.3c0-1.82,1.48-3.3,3.3-3.3
					C53.06,78.23,54.54,79.71,54.54,81.53z"/>
				<path class="st0" d="M54.16,86.85c0,1.82-1.48,3.3-3.3,3.3c-1.82,0-3.3-1.48-3.3-3.3c0-1.82,1.48-3.3,3.3-3.3
					C52.68,83.55,54.16,85.03,54.16,86.85z"/>
				<path class="st0" d="M51.88,91.36c0,1.48-1.2,2.68-2.68,2.68s-2.68-1.2-2.68-2.68c0-1.48,1.2-2.68,2.68-2.68
					S51.88,89.88,51.88,91.36z"/>
				<path class="st0" d="M59.12,87.32c0,1.82-1.48,3.3-3.3,3.3c-1.82,0-3.3-1.48-3.3-3.3c0-1.82,1.48-3.3,3.3-3.3
					C57.64,84.02,59.12,85.5,59.12,87.32z"/>
				<circle class="st0" cx="54.16" cy="94.35" r="5.81"/>
				<path class="st0" d="M70.2,90.62c0,3.59-2.91,6.51-6.51,6.51s-6.51-2.91-6.51-6.51c0-3.59,2.91-6.51,6.51-6.51
					S70.2,87.03,70.2,90.62z"/>
			</g>
			<g>
				<path class="st1" d="M60.87,67.32c0,1.62-1.31,6.78-2.93,6.78c-1.62,0-2.93-5.17-2.93-6.78c0-1.62,1.31-2.93,2.93-2.93
					C59.56,64.39,60.87,65.71,60.87,67.32z"/>
				<path class="st2" d="M60,66.86c0,1.14-0.92,4.77-2.06,4.77c-1.14,0-2.06-3.64-2.06-4.77s0.92-2.06,2.06-2.06
					C59.08,64.8,60,65.72,60,66.86z"/>
			</g>
			<g>
				<polygon class="st3" points="79.65,59.78 65.74,59.78 65.74,40.66 82.65,49.88 				"/>
				<polygon class="st3" points="35.9,59.78 49.8,59.78 49.8,40.66 32.9,49.88 				"/>
				<rect x="47.56" y="18.12" class="st0" width="20.76" height="43.79"/>
				<path class="st4" d="M57.94,3.92c0,0-10.38,3.22-10.38,14.21c6.93,0,10.38,0,10.38,0s3.44,0,10.38,0
					C68.32,7.14,57.94,3.92,57.94,3.92z"/>
				<rect x="49.2" y="61.91" class="st5" width="17.48" height="3.86"/>
				<rect x="31.3" y="48.07" class="st6" width="5.94" height="12.54"/>
				<path class="st4" d="M34.27,44c0,0-2.97,0.92-2.97,4.07c1.99,0,2.97,0,2.97,0s0.99,0,2.97,0C37.24,44.92,34.27,44,34.27,44z"/>
				<rect x="31.77" y="60.6" class="st5" width="5" height="1.11"/>
				<rect x="78.3" y="48.07" class="st6" width="5.94" height="12.54"/>
				<path class="st4" d="M81.28,44c0,0-2.97,0.92-2.97,4.07c1.99,0,2.97,0,2.97,0s0.99,0,2.97,0C84.25,44.92,81.28,44,81.28,44z"/>
				<rect x="78.77" y="60.6" class="st5" width="5" height="1.11"/>
				<path class="st4" d="M64.1,28.16c0,3.4-2.76,6.16-6.16,6.16c-3.4,0-6.16-2.76-6.16-6.16c0-3.4,2.76-6.16,6.16-6.16
					C61.34,22,64.1,24.76,64.1,28.16z"/>
				<circle class="st7" cx="57.94" cy="28.16" r="5.07"/>
				<path class="st0" d="M57.65,25.8c0,0.66-0.54,1.2-1.2,1.2c-0.66,0-1.2-0.54-1.2-1.2c0-0.66,0.54-1.2,1.2-1.2
					C57.11,24.59,57.65,25.13,57.65,25.8z"/>
				<path class="st8" d="M66.68,65.77v-3.86h1.64v-2.13h9.98v0.82h0.47v1.11h5V60.6h0.47V48.07c0,0-1.99,0,0,0
					c0-3.14-2.97-4.07-2.97-4.07s-2.63,0.82-2.94,3.53l-10.02-5.47V18.12c0-10.98-10.38-14.21-10.38-14.21v61.86H66.68z"/>
			</g>
		</g>
		<g id="Star_1_">
			<g>
				<path class="st0" d="M77.45,77.98c-0.86,0-1.56-0.7-1.56-1.56c0,0.86-0.7,1.56-1.56,1.56c0.86,0,1.56,0.7,1.56,1.56
					C75.9,78.67,76.59,77.98,77.45,77.98z"/>
			</g>
			<g>
				<circle class="st0" cx="102.85" cy="83.11" r="1.56"/>
			</g>
			<g>
				<path class="st0" d="M111.18,66.76c-0.86,0-1.56-0.7-1.56-1.56c0,0.86-0.7,1.56-1.56,1.56c0.86,0,1.56,0.7,1.56,1.56
					C109.62,67.45,110.32,66.76,111.18,66.76z"/>
			</g>
		</g>
	</g>
</g>
</svg>
