<?xml version="1.0" encoding="utf-8"?>
<!-- Generator: Adobe Illustrator 23.0.2, SVG Export Plug-In . SVG Version: 6.00 Build 0)  -->
<svg version="1.1" id="Layer_1" xmlns="http://www.w3.org/2000/svg" xmlns:xlink="http://www.w3.org/1999/xlink" x="0px" y="0px"
	 viewBox="0 0 123.11 101.7" style="enable-background:new 0 0 123.11 101.7;" xml:space="preserve">
<style type="text/css">
	.st0{fill:#61C9D6;}
	.st1{fill:#90ECFF;}
	.st2{fill:#76D8E5;}
	.st3{fill:#FFFFFF;}
	.st4{fill:#002C40;}
	.st5{fill:#231F20;}
	.st6{fill:#FF4F54;}
	.st7{fill:#ECC200;}
	.st8{fill:#57C6CE;}
	.st9{fill:#0C161E;}
</style>
<g id="Alien">
	<g id="Alien_2_">
		<g id="Alien_1_">
			
				<rect x="69.97" y="33.56" transform="matrix(0.8524 -0.5229 0.5229 0.8524 -12.1946 43.7491)" class="st0" width="2.84" height="19.83"/>
			<path class="st1" d="M69.26,34.33c0.86,1.4,0.42,3.22-0.98,4.08c-1.4,0.86-3.22,0.42-4.08-0.98c-0.86-1.4-0.42-3.22,0.98-4.08
				C66.58,32.5,68.41,32.93,69.26,34.33z"/>
			
				<rect x="90.99" y="42.05" transform="matrix(0.5229 -0.8524 0.8524 0.5229 11.0838 106.7497)" class="st0" width="19.83" height="2.84"/>
			<path class="st1" d="M103.03,34.33c-0.86,1.4-0.42,3.22,0.98,4.08c1.4,0.86,3.22,0.42,4.08-0.98c0.86-1.4,0.42-3.22-0.98-4.08
				C105.72,32.5,103.89,32.93,103.03,34.33z"/>
			
				<ellipse transform="matrix(0.1683 -0.9857 0.9857 0.1683 8.6828 137.7016)" class="st1" cx="85.94" cy="63.71" rx="22.07" ry="22.07"/>
			<rect x="63.88" y="63.71" class="st1" width="44.13" height="37.99"/>
			
				<ellipse transform="matrix(0.227 -0.9739 0.9739 0.227 8.503 129.4751)" class="st2" cx="85.81" cy="59.38" rx="10.96" ry="10.96"/>
			<circle class="st3" cx="85.81" cy="59.38" r="9.39"/>
			<path class="st4" d="M92.1,59.38c0,3.47-2.81,6.29-6.29,6.29c-3.47,0-6.28-2.81-6.28-6.29c0-3.47,2.81-6.28,6.28-6.28
				C89.28,53.1,92.1,55.91,92.1,59.38z"/>
			<path class="st2" d="M93.28,79.47c0,4.13-3.35,7.47-7.47,7.47c-4.13,0-7.47-3.35-7.47-7.47c0-4.13,3.35-7.47,7.47-7.47
				C89.94,72,93.28,75.34,93.28,79.47z"/>
			<path class="st3" d="M92.21,79.47c0,3.54-2.87,6.4-6.4,6.4c-3.54,0-6.4-2.87-6.4-6.4c0-3.54,2.87-6.4,6.4-6.4
				C89.35,73.07,92.21,75.94,92.21,79.47z"/>
			<path class="st4" d="M90.1,79.47c0,2.37-1.92,4.28-4.28,4.28c-2.37,0-4.28-1.92-4.28-4.28c0-2.37,1.92-4.28,4.28-4.28
				C88.18,75.19,90.1,77.11,90.1,79.47z"/>
			<g>
				<path class="st5" d="M85.81,97.06c2.73,0,4.93-2.21,4.93-4.93h-9.87C80.88,94.85,83.09,97.06,85.81,97.06z"/>
			</g>
			<path class="st6" d="M82.82,96.05c0.83,0.63,1.86,1.02,2.99,1.02c1.13,0,2.16-0.38,2.99-1.02c-0.42-1.25-1.6-2.14-2.99-2.14
				C84.42,93.9,83.25,94.8,82.82,96.05z"/>
			<path class="st2" d="M70.18,62.49c0,0.26-0.21,0.47-0.47,0.47c-0.26,0-0.47-0.21-0.47-0.47c0-0.26,0.21-0.47,0.47-0.47
				C69.96,62.01,70.18,62.22,70.18,62.49z"/>
			<path class="st2" d="M73.84,89.8c0,0.26-0.21,0.47-0.47,0.47c-0.26,0-0.47-0.21-0.47-0.47c0-0.26,0.21-0.47,0.47-0.47
				C73.62,89.33,73.84,89.54,73.84,89.8z"/>
			<path class="st2" d="M66.99,87.42c0,0.26-0.21,0.47-0.47,0.47c-0.26,0-0.47-0.21-0.47-0.47c0-0.26,0.21-0.47,0.47-0.47
				C66.78,86.94,66.99,87.16,66.99,87.42z"/>
			<path class="st2" d="M69.39,69.13c0,1.18-0.95,2.13-2.13,2.13c-1.18,0-2.13-0.95-2.13-2.13c0-1.17,0.95-2.13,2.13-2.13
				C68.44,67,69.39,67.95,69.39,69.13z"/>
			<path class="st2" d="M100.28,88.78c0,1.17-0.95,2.13-2.13,2.13c-1.17,0-2.13-0.95-2.13-2.13c0-1.17,0.95-2.13,2.13-2.13
				C99.32,86.65,100.28,87.61,100.28,88.78z"/>
			<path class="st2" d="M74.85,72.75c0,0.67-0.55,1.22-1.22,1.22c-0.67,0-1.22-0.55-1.22-1.22c0-0.67,0.55-1.22,1.22-1.22
				C74.3,71.53,74.85,72.07,74.85,72.75z"/>
			<path class="st2" d="M101.5,67.91c0,0.67-0.55,1.22-1.22,1.22c-0.67,0-1.22-0.55-1.22-1.22c0-0.67,0.55-1.22,1.22-1.22
				C100.95,66.69,101.5,67.23,101.5,67.91z"/>
			<path class="st2" d="M102.18,61.82c0,0.38-0.3,0.68-0.68,0.68c-0.38,0-0.68-0.3-0.68-0.68c0-0.38,0.3-0.68,0.68-0.68
				C101.87,61.14,102.18,61.44,102.18,61.82z"/>
			<path class="st2" d="M104.55,73.97c0,0.33-0.26,0.59-0.59,0.59c-0.33,0-0.59-0.26-0.59-0.59c0-0.33,0.26-0.59,0.59-0.59
				C104.29,73.38,104.55,73.64,104.55,73.97z"/>
			<path class="st2" d="M99.06,72.75c0,0.67-0.55,1.22-1.22,1.22c-0.67,0-1.22-0.55-1.22-1.22c0-0.67,0.55-1.22,1.22-1.22
				C98.51,71.53,99.06,72.07,99.06,72.75z"/>
			<path class="st2" d="M68.48,78.67c0,0.67-0.55,1.22-1.22,1.22c-0.67,0-1.22-0.55-1.22-1.22s0.55-1.22,1.22-1.22
				C67.94,77.45,68.48,78,68.48,78.67z"/>
			<path class="st2" d="M76.07,95.48c0,0.67-0.55,1.22-1.22,1.22c-0.67,0-1.22-0.55-1.22-1.22c0-0.67,0.55-1.22,1.22-1.22
				C75.52,94.26,76.07,94.81,76.07,95.48z"/>
			<path class="st2" d="M102.13,97.44c0,0.67-0.55,1.22-1.22,1.22c-0.67,0-1.22-0.55-1.22-1.22c0-0.67,0.55-1.22,1.22-1.22
				C101.58,96.22,102.13,96.76,102.13,97.44z"/>
			<path class="st2" d="M100.28,78.67c0,0.67-0.55,1.22-1.22,1.22c-0.67,0-1.22-0.55-1.22-1.22s0.55-1.22,1.22-1.22
				C99.73,77.45,100.28,78,100.28,78.67z"/>
			<path class="st2" d="M105.18,83.28c0,0.67-0.55,1.22-1.22,1.22c-0.67,0-1.22-0.55-1.22-1.22c0-0.67,0.55-1.22,1.22-1.22
				C104.63,82.06,105.18,82.61,105.18,83.28z"/>
			<path class="st2" d="M73.36,83.75c0,0.67-0.55,1.22-1.22,1.22c-0.67,0-1.22-0.55-1.22-1.22c0-0.67,0.55-1.22,1.22-1.22
				C72.82,82.53,73.36,83.08,73.36,83.75z"/>
			<path class="st2" d="M70.07,92.13c0,0.67-0.55,1.22-1.22,1.22c-0.67,0-1.22-0.55-1.22-1.22c0-0.67,0.55-1.22,1.22-1.22
				C69.52,90.91,70.07,91.45,70.07,92.13z"/>
			<path class="st2" d="M77.64,47.64c0,0.67-0.55,1.22-1.22,1.22c-0.67,0-1.22-0.55-1.22-1.22c0-0.67,0.55-1.22,1.22-1.22
				C77.09,46.42,77.64,46.97,77.64,47.64z"/>
			<path class="st2" d="M92.69,47.64c0,0.67-0.55,1.22-1.22,1.22c-0.67,0-1.22-0.55-1.22-1.22c0-0.67,0.55-1.22,1.22-1.22
				C92.14,46.42,92.69,46.97,92.69,47.64z"/>
			<path class="st2" d="M100.28,53.51c0,0.67-0.55,1.22-1.22,1.22c-0.67,0-1.22-0.55-1.22-1.22c0-0.67,0.55-1.22,1.22-1.22
				C99.73,52.29,100.28,52.83,100.28,53.51z"/>
			<path class="st2" d="M72.61,55.56c0,0.67-0.55,1.22-1.22,1.22c-0.67,0-1.22-0.55-1.22-1.22c0-0.67,0.55-1.22,1.22-1.22
				C72.06,54.34,72.61,54.88,72.61,55.56z"/>
			<path class="st3" d="M86.05,58.27c0,1.25-1.01,2.26-2.26,2.26c-1.25,0-2.26-1.01-2.26-2.26c0-1.25,1.01-2.26,2.26-2.26
				C85.04,56.01,86.05,57.03,86.05,58.27z"/>
			<path class="st3" d="M86.02,78.67c0,0.83-0.67,1.5-1.5,1.5c-0.83,0-1.5-0.67-1.5-1.5c0-0.83,0.67-1.5,1.5-1.5
				C85.35,77.18,86.02,77.85,86.02,78.67z"/>
		</g>
		<g>
			<circle class="st3" cx="53.95" cy="40.43" r="2.2"/>
			<circle class="st3" cx="119.18" cy="67.01" r="1.29"/>
			<path class="st3" d="M96.34,20.85c-1.22,0-2.21-0.99-2.21-2.21c0,1.22-0.99,2.21-2.21,2.21c1.22,0,2.21,0.99,2.21,2.21
				C94.13,21.84,95.12,20.85,96.34,20.85z"/>
			<circle class="st3" cx="59.19" cy="66.77" r="1.29"/>
		</g>
	</g>
	<g id="Alien_Shotgun">
		<g id="Alien_Shotgun_2_">
			<g id="Alien_Shotgun_1_">
				
					<rect x="44.15" y="15.17" transform="matrix(0.2231 -0.9748 0.9748 0.2231 10.1525 64.2342)" class="st3" width="2.45" height="21.16"/>
				<path class="st3" d="M52.07,27.24c-0.35,1.54,0.61,3.07,2.15,3.42c1.54,0.35,3.07-0.61,3.42-2.15c0.35-1.54-0.61-3.07-2.15-3.42
					C53.96,24.74,52.42,25.7,52.07,27.24z"/>
				<path class="st7" d="M48.19,31.74c-0.12,0.52,0.21,1.04,0.73,1.16l0.2,0.05c0.52,0.12,1.04-0.21,1.16-0.73l2.35-10.24
					c0.12-0.52-0.21-1.04-0.73-1.16l-0.2-0.05c-0.52-0.12-1.04,0.21-1.16,0.73L48.19,31.74z"/>
				<path class="st7" d="M44.76,30.95c-0.12,0.52,0.21,1.04,0.73,1.16l0.2,0.05c0.52,0.12,1.04-0.21,1.16-0.73l2.35-10.24
					c0.12-0.52-0.21-1.04-0.73-1.16l-0.2-0.05c-0.52-0.12-1.04,0.21-1.16,0.73L44.76,30.95z"/>
				<path class="st7" d="M41.35,30.17c-0.12,0.52,0.21,1.04,0.73,1.16l0.2,0.05c0.52,0.12,1.04-0.21,1.16-0.73l2.35-10.24
					c0.12-0.52-0.21-1.04-0.73-1.16l-0.2-0.05c-0.52-0.12-1.04,0.21-1.16,0.73L41.35,30.17z"/>
				<path class="st7" d="M37.93,29.39c-0.12,0.52,0.21,1.04,0.73,1.16l0.2,0.05c0.52,0.12,1.04-0.21,1.16-0.73l2.35-10.24
					c0.12-0.52-0.21-1.04-0.73-1.16l-0.2-0.05c-0.52-0.12-1.04,0.21-1.16,0.73L37.93,29.39z"/>
				<path class="st7" d="M7,16.27c-0.5,2.18,0.87,4.36,3.05,4.86c2.18,0.5,4.36-0.87,4.86-3.05c0.5-2.18-0.86-4.36-3.05-4.86
					C9.67,12.72,7.5,14.09,7,16.27z"/>
				<polygon class="st8" points="5.82,35.4 13.72,39.19 22.68,24.8 15.36,20.24 				"/>
				<path class="st1" d="M4.39,36.36c-0.12,0.52,0.21,1.04,0.73,1.16l9.02,2.06c0.52,0.12,1.04-0.21,1.16-0.73l0.12-0.53
					c0.12-0.52-0.21-1.04-0.73-1.16L5.67,35.1c-0.52-0.12-1.04,0.21-1.16,0.73L4.39,36.36z"/>
				<polygon class="st9" points="21.62,30.68 23.18,30.07 23.87,27.04 22.52,26.73 				"/>
				<path class="st1" d="M9.45,23.75c-0.12,0.52,0.21,1.04,0.73,1.16l26.19,6c0.52,0.12,0.92-0.22,0.88-0.75l-0.82-13.18
					c-0.03-0.53-0.48-1.06-1-1.18l-22.01-5.04c-0.52-0.12-1.04,0.21-1.16,0.73L9.45,23.75z"/>
				<polygon class="st8" points="14.47,8.93 17.17,9.55 19.41,12.12 14.02,10.89 				"/>
				
					<rect x="17.68" y="8.95" transform="matrix(0.2231 -0.9748 0.9748 0.2231 0.5205 29.7566)" class="st3" width="2.5" height="11.2"/>
			</g>
			<g id="Star_4_">
				<path class="st3" d="M21.9,4.19c-0.92-0.21-1.49-1.13-1.28-2.05c-0.21,0.92-1.13,1.49-2.05,1.28c0.92,0.21,1.49,1.13,1.28,2.05
					C20.06,4.55,20.98,3.97,21.9,4.19z"/>
				<path class="st3" d="M25.13,56.61c-1.08-0.25-1.75-1.32-1.51-2.4c-0.25,1.08-1.32,1.75-2.4,1.51c1.08,0.25,1.75,1.32,1.51,2.4
					C22.97,57.03,24.05,56.36,25.13,56.61z"/>
				<path class="st3" d="M42.55,43.54c-1.08-0.25-1.75-1.32-1.51-2.4c-0.25,1.08-1.32,1.75-2.4,1.51c1.08,0.25,1.75,1.32,1.51,2.4
					C40.39,43.97,41.47,43.29,42.55,43.54z"/>
				<path class="st3" d="M53.1,13.08c-1.08-0.25-1.75-1.32-1.51-2.4c-0.25,1.08-1.32,1.75-2.4,1.51c1.08,0.25,1.75,1.32,1.51,2.4
					C50.95,13.51,52.02,12.83,53.1,13.08z"/>
			</g>
		</g>
	</g>
</g>
</svg>
