<?xml version="1.0" encoding="utf-8"?>
<!-- Generator: Adobe Illustrator 23.0.2, SVG Export Plug-In . SVG Version: 6.00 Build 0)  -->
<svg version="1.1" id="Layer_1" xmlns="http://www.w3.org/2000/svg" xmlns:xlink="http://www.w3.org/1999/xlink" x="0px" y="0px"
	 viewBox="0 0 148.2 39.2" style="enable-background:new 0 0 148.2 39.2;" xml:space="preserve">
<style type="text/css">
	.st0{fill:#FF4F54;}
	.st1{fill:#EA4753;}
	.st2{fill:#D83A4E;}
	.st3{opacity:0.1;}
	.st4{opacity:0.1;enable-background:new    ;}
	.st5{fill:#FFFFFF;}
	.st6{enable-background:new    ;}
	.st7{fill:#FF0000;}
</style>
<g id="Mars">
	<g id="Mars_1_">
		<path class="st0" d="M26.1,20.4c-1.8,6.8-8.7,10.9-15.6,9.1c-6.8-1.8-10.9-8.7-9.1-15.6C3.2,7.1,10.1,3,17,4.8
			C23.8,6.6,27.9,13.5,26.1,20.4z"/>
		<g>
			<path class="st1" d="M1.2,19.7c3.6,0.1,13.5-0.2,24.7-6.3c-0.4-1.4-1.1-2.7-2-3.9C20.3,12,12,16.6,1.1,16
				C0.9,17.2,1,18.5,1.2,19.7z"/>
			<path class="st1" d="M26.1,20.4c0.3-1.3,0.5-2.6,0.4-3.9c-2.9,2.2-11.7,7.9-23.7,7.2c0.6,0.9,1.2,1.8,2,2.6
				c3.8,0,11.8-0.5,21-4.9C25.9,21,26,20.7,26.1,20.4z"/>
			<path class="st1" d="M12.9,29.9c3,0.2,6-0.7,8.3-2.4C18.8,28.5,16,29.4,12.9,29.9z"/>
			<path class="st1" d="M21.6,7.1c-1.3-1-2.9-1.8-4.6-2.3C10.8,3.2,4.6,6.3,2.1,12C6.3,11.8,13.5,10.9,21.6,7.1z"/>
		</g>
		<path class="st2" d="M21.5,13.7c-0.3,1.3-1.7,2.1-3,1.7c-1.3-0.3-2.1-1.7-1.7-3c0.3-1.3,1.7-2.1,3-1.7S21.8,12.4,21.5,13.7z"/>
		<g class="st3">
			<path d="M20.2,11.5c0.5,0.1,0.9,0.4,1.3,0.8c-0.3-0.7-0.9-1.4-1.7-1.6c-1.3-0.3-2.6,0.4-3,1.7c-0.2,0.8,0,1.6,0.5,2.1
				c-0.1-0.4-0.2-0.9-0.1-1.4C17.6,11.9,18.9,11.1,20.2,11.5z"/>
		</g>
		<path class="st2" d="M13.5,19.1c-0.2,0.9-1.1,1.4-2,1.2c-0.9-0.2-1.4-1.1-1.2-2s1.1-1.4,2-1.2S13.8,18.2,13.5,19.1z"/>
		<g class="st3">
			<path d="M12.6,17.6c0.4,0.1,0.6,0.3,0.9,0.6c-0.2-0.5-0.6-0.9-1.1-1.1c-0.9-0.2-1.8,0.3-2,1.2c-0.1,0.5,0,1.1,0.3,1.5
				c-0.1-0.3-0.1-0.6,0-0.9C10.8,17.9,11.7,17.4,12.6,17.6z"/>
		</g>
		<path class="st2" d="M19.2,7.9c-0.1,0.6-0.7,0.9-1.3,0.8C17.3,8.6,17,8,17.1,7.4s0.7-0.9,1.3-0.8C19,6.7,19.3,7.3,19.2,7.9z"/>
		<g class="st3">
			<path d="M18.6,6.9C18.8,7,19,7.1,19.2,7.3c-0.1-0.3-0.4-0.6-0.7-0.7c-0.6-0.1-1.2,0.2-1.3,0.8c-0.1,0.3,0,0.7,0.2,1
				c-0.1-0.2-0.1-0.4,0-0.6C17.5,7.1,18,6.7,18.6,6.9z"/>
		</g>
		<path class="st2" d="M7.5,17.5c-0.2,0.9-1.1,1.4-2,1.2c-0.9-0.2-1.4-1.1-1.2-2c0.2-0.9,1.1-1.4,2-1.2C7.1,15.7,7.7,16.6,7.5,17.5z
			"/>
		<g class="st3">
			<path d="M6.6,16c0.4,0.1,0.6,0.3,0.9,0.6c-0.2-0.5-0.6-0.9-1.1-1.1c-0.9-0.2-1.8,0.3-2,1.2c-0.1,0.5,0,1.1,0.3,1.5
				c-0.1-0.3-0.1-0.6,0-0.9C4.8,16.3,5.7,15.8,6.6,16z"/>
		</g>
		<path class="st2" d="M13.2,26.9c-0.2,0.9-1.1,1.4-2,1.2c-0.9-0.2-1.4-1.1-1.2-2s1.1-1.4,2-1.2C12.9,25.2,13.4,26.1,13.2,26.9z"/>
		<g class="st3">
			<path d="M12.3,25.4c0.4,0.1,0.6,0.3,0.9,0.6c-0.2-0.5-0.6-0.9-1.1-1.1c-0.9-0.2-1.8,0.3-2,1.2c-0.1,0.5,0,1.1,0.3,1.5
				c-0.1-0.3-0.1-0.6,0-0.9C10.5,25.7,11.4,25.2,12.3,25.4z"/>
		</g>
		<path class="st2" d="M19.3,25.9c-0.2,0.9-1.1,1.4-2,1.2c-0.9-0.2-1.4-1.1-1.2-2c0.2-0.9,1.1-1.4,2-1.2C19,24.1,19.5,25,19.3,25.9z
			"/>
		<g class="st3">
			<path d="M18.4,24.4c0.4,0.1,0.6,0.3,0.9,0.6c-0.2-0.5-0.6-0.9-1.1-1.1c-0.9-0.2-1.8,0.3-2,1.2c-0.1,0.5,0,1.1,0.3,1.5
				c-0.1-0.3-0.1-0.6,0-0.9C16.6,24.7,17.5,24.2,18.4,24.4z"/>
		</g>
		<path class="st2" d="M23.5,19.8c-0.1,0.5-0.6,0.8-1.2,0.7c-0.5-0.1-0.8-0.6-0.7-1.2c0.1-0.5,0.6-0.8,1.2-0.7
			C23.3,18.8,23.6,19.3,23.5,19.8z"/>
		<g class="st3">
			<path d="M22.9,19c0.2,0.1,0.4,0.2,0.5,0.3c-0.1-0.3-0.3-0.5-0.7-0.6c-0.5-0.1-1,0.2-1.2,0.7c-0.1,0.3,0,0.6,0.2,0.8
				c-0.1-0.2-0.1-0.4,0-0.5C21.9,19.2,22.4,18.9,22.9,19z"/>
		</g>
		<path class="st2" d="M11.6,8.9c-0.1,0.5-0.6,0.8-1.2,0.7C10,9.4,9.7,8.9,9.8,8.4s0.6-0.8,1.2-0.7C11.5,7.9,11.8,8.4,11.6,8.9z"/>
		<g class="st3">
			<path d="M11.1,8c0.2,0.1,0.4,0.2,0.5,0.3C11.5,8,11.3,7.8,11,7.7c-0.5-0.1-1,0.2-1.2,0.7C9.7,8.7,9.8,9,10,9.2
				C9.9,9,9.9,8.8,10,8.7C10.1,8.2,10.6,7.9,11.1,8z"/>
		</g>
		<path class="st2" d="M5.5,10.1c-0.1,0.3-0.3,0.4-0.6,0.4c-0.3-0.1-0.4-0.3-0.4-0.6c0.1-0.3,0.3-0.4,0.6-0.4
			C5.5,9.5,5.6,9.8,5.5,10.1z"/>
		<g class="st3">
			<path d="M5.3,9.6c0.1,0,0.2,0.1,0.3,0.2C5.5,9.6,5.4,9.5,5.2,9.5C4.9,9.4,4.6,9.6,4.6,9.8s0,0.3,0.1,0.4c0-0.1,0-0.2,0-0.3
				C4.7,9.7,5,9.6,5.3,9.6z"/>
		</g>
		<path class="st2" d="M25.8,16.9c-0.1,0.3-0.3,0.4-0.6,0.4c-0.3-0.1-0.4-0.3-0.4-0.6c0.1-0.3,0.3-0.4,0.6-0.4S25.9,16.6,25.8,16.9z
			"/>
		<g class="st3">
			<path d="M25.5,16.4c0.1,0,0.2,0.1,0.3,0.2C25.7,16.4,25.6,16.3,25.5,16.4c-0.3-0.2-0.5,0-0.6,0.3c0,0.2,0,0.3,0.1,0.4
				c0-0.1,0-0.2,0-0.3C25,16.5,25.3,16.3,25.5,16.4z"/>
		</g>
		<path class="st2" d="M4.8,21.2c-0.1,0.3-0.3,0.4-0.6,0.4c-0.3-0.1-0.4-0.3-0.4-0.6c0.1-0.3,0.3-0.4,0.6-0.4
			C4.7,20.7,4.8,21,4.8,21.2z"/>
		<g class="st3">
			<path d="M4.5,20.8c0.1,0,0.2,0.1,0.3,0.2C4.7,20.8,4.6,20.7,4.5,20.8c-0.3-0.2-0.5,0-0.6,0.3c0,0.2,0,0.3,0.1,0.4
				c0-0.1,0-0.2,0-0.3C4,20.9,4.2,20.7,4.5,20.8z"/>
		</g>
		<path class="st2" d="M8.4,25.7C8.3,26,8,26.2,7.8,26.1c-0.3-0.1-0.4-0.3-0.4-0.6c0.1-0.3,0.3-0.4,0.6-0.4
			C8.3,25.2,8.5,25.5,8.4,25.7z"/>
		<g class="st3">
			<path d="M8.1,25.3c0.1,0,0.2,0.1,0.3,0.2C8.3,25.3,8.2,25.2,8.1,25.3c-0.3-0.2-0.5,0-0.6,0.3c0,0.2,0,0.3,0.1,0.4
				c0-0.1,0-0.2,0-0.3C7.6,25.4,7.8,25.2,8.1,25.3z"/>
		</g>
		<path class="st4" d="M21.9,7.3c0.9,2.4,1.1,5,0.4,7.6c-1.8,6.8-8.7,10.9-15.6,9.1c-1.9-0.5-3.5-1.4-4.9-2.5
			c1.4,3.8,4.6,6.8,8.8,7.9c6.8,1.8,13.8-2.3,15.6-9.1C27.4,15.4,25.6,10.4,21.9,7.3z"/>
	</g>
	<g id="Star_9_">
		<g>
			<circle class="st5" cx="1.5" cy="27.5" r="1.2"/>
		</g>
		<g>
			<path class="st5" d="M28.8,18.8c0,0.7-0.6,1.2-1.2,1.2c0.7,0,1.2,0.6,1.2,1.2c0-0.7,0.6-1.2,1.2-1.2C29.4,20,28.8,19.4,28.8,18.8
				z"/>
		</g>
		<g>
			<circle class="st5" cx="5.5" cy="2.8" r="2.6"/>
		</g>
	</g>
	<g class="st6">
		<path class="st7" d="M45.1,19.8c0.3,0,0.6,0.1,0.8,0.4c0.2,0.2,0.3,0.5,0.3,0.8v6c0,0.3-0.1,0.6-0.3,0.8c-0.2,0.2-0.5,0.3-0.8,0.3
			c-0.3,0-0.6-0.1-0.8-0.3C44.1,27.6,44,27.3,44,27v-4.9l-3,0c-0.8,0-1.5-0.1-2-0.4c-0.6-0.3-1-0.6-1.3-1c-0.3-0.4-0.6-0.9-0.7-1.3
			s-0.2-0.9-0.2-1.4c0-0.7,0.1-1.4,0.5-2.1c0,0,0.1-0.1,0.1-0.1c0.2-0.3,0.5-0.6,0.8-0.9c0.3-0.3,0.6-0.5,1-0.7
			c0.4-0.2,0.9-0.2,1.5-0.3c0.1,0,0.2,0,0.3,0v0c0.3,0,0.6,0,1,0c0,0,0.1,0,0.1,0l1.9,0h1.1c0.3,0,0.6,0.1,0.8,0.3
			c0.2,0.2,0.3,0.5,0.3,0.8c0,0.3-0.1,0.6-0.3,0.8c-0.2,0.2-0.5,0.3-0.8,0.3l-1.3,0c-0.1,0-0.2,0-0.3,0c-0.4,0-0.9,0-1.5,0
			c-0.6,0-0.9,0-1.1,0c-0.6,0-1,0.2-1.4,0.6c-0.4,0.4-0.5,0.8-0.5,1.3h0c0,0.5,0.2,1,0.5,1.3c0.3,0.4,0.8,0.6,1.3,0.6
			c0.2,0,0.6,0,1.1,0s1,0,1.4,0c0.1,0,0.3,0,0.4,0L45.1,19.8z M40.5,25.9c0.3,0,0.6,0.1,0.8,0.3c0.2,0.2,0.3,0.5,0.3,0.8
			s-0.1,0.6-0.3,0.8c-0.2,0.2-0.5,0.3-0.8,0.3h-2.7c-0.3,0-0.6-0.1-0.8-0.3c-0.2-0.2-0.3-0.5-0.3-0.8s0.1-0.6,0.3-0.8
			s0.5-0.3,0.8-0.3H40.5z"/>
		<path class="st7" d="M57.3,15.8c0.4,0.7,0.6,1.4,0.5,2.2c0,0.4-0.1,0.9-0.2,1.4c-0.1,0.5-0.4,0.9-0.7,1.3c-0.3,0.4-0.8,0.8-1.3,1
			c-0.6,0.3-1.2,0.4-2,0.4l-3,0v4.9c0,0.3-0.1,0.6-0.3,0.8c-0.2,0.2-0.5,0.3-0.8,0.3c-0.3,0-0.6-0.1-0.8-0.3
			c-0.2-0.2-0.3-0.5-0.3-0.8v-6c0-0.3,0.1-0.6,0.3-0.8c0.2-0.3,0.5-0.4,0.8-0.4l1.3,0c0.1,0,0.2,0,0.3,0c0.4,0,0.9,0,1.5,0
			c0.6,0,0.9,0,1.1,0c0.5,0,1-0.2,1.3-0.5c0.3-0.4,0.5-0.8,0.5-1.3h0c0-0.5-0.2-0.9-0.5-1.3s-0.8-0.6-1.4-0.6c-0.2,0-0.6,0-1.1,0
			s-1,0-1.4,0c-0.1,0-0.3,0-0.3,0l-1.3,0c-0.3,0-0.6-0.1-0.8-0.3c-0.2-0.2-0.3-0.5-0.3-0.8c0-0.3,0.1-0.6,0.3-0.8
			c0.2-0.2,0.5-0.3,0.8-0.3h1.1l1.9,0c0,0,0.1,0,0.1,0c0.4,0,0.7,0,1,0v0c0.1,0,0.2,0,0.3,0c0.6,0,1.1,0.1,1.5,0.2
			c0.4,0.2,0.7,0.4,1,0.7C56.8,15.1,57,15.4,57.3,15.8C57.2,15.8,57.3,15.8,57.3,15.8C57.3,15.8,57.3,15.8,57.3,15.8z"/>
		<path class="st7" d="M69.6,26.6c0.1,0.3,0.1,0.6,0,0.8c-0.1,0.3-0.3,0.5-0.6,0.6c-0.3,0.1-0.6,0.1-0.8,0s-0.5-0.3-0.6-0.6l-4.5-10
			l-4.5,10c-0.1,0.3-0.3,0.5-0.6,0.6s-0.6,0.1-0.8,0c-0.3-0.1-0.5-0.3-0.6-0.6c-0.1-0.3-0.1-0.5,0-0.8l5.5-12.1
			c0.1-0.2,0.2-0.3,0.4-0.4c0,0,0,0,0.1-0.1h0c0,0,0,0,0.1,0c0,0,0,0,0,0c0,0,0,0,0,0l0,0c0,0,0,0,0,0c0,0,0,0,0,0l0,0h0
			c0,0,0,0,0,0h0c0,0,0,0,0,0c0,0,0,0,0.1,0c0.1,0,0.2,0,0.3,0s0.2,0,0.3,0h0c0,0,0.1,0,0.1,0c0,0,0,0,0,0h0l0,0c0,0,0.1,0,0.1,0h0
			h0c0.1,0,0.1,0.1,0.2,0.1c0.1,0.1,0.2,0.3,0.3,0.4L69.6,26.6z M64.4,25.9c0.3,0,0.6,0.1,0.8,0.3c0.2,0.2,0.3,0.5,0.3,0.8
			c0,0.3-0.1,0.6-0.3,0.8c-0.2,0.2-0.5,0.3-0.8,0.3h-2.7c-0.3,0-0.6-0.1-0.8-0.3c-0.2-0.2-0.3-0.5-0.3-0.8c0-0.3,0.1-0.6,0.3-0.8
			c0.2-0.2,0.5-0.3,0.8-0.3H64.4z"/>
		<path class="st7" d="M80.6,24.7c0.3,0,0.6,0.1,0.8,0.3c0.2,0.2,0.3,0.5,0.3,0.8c0,0.3-0.1,0.6-0.4,0.8c-0.1,0.1-0.1,0.1-0.2,0.1
			c-0.6,0.4-1.2,0.8-2,1c-0.7,0.2-1.5,0.4-2.3,0.4c-1.3,0-2.5-0.3-3.6-1c-1.1-0.6-1.9-1.5-2.6-2.6c-0.6-1.1-1-2.3-1-3.6
			s0.3-2.5,1-3.6c0.6-1.1,1.5-1.9,2.6-2.6c1.1-0.6,2.3-1,3.6-1c0.8,0,1.6,0.1,2.3,0.4s1.4,0.6,2,1c0.3,0.2,0.5,0.5,0.5,0.9
			c0,0.3-0.1,0.6-0.3,0.8c-0.2,0.2-0.5,0.3-0.8,0.3c-0.3,0-0.5-0.1-0.7-0.3c-0.8-0.6-1.8-1-2.9-1c-0.9,0-1.7,0.2-2.5,0.7
			s-1.3,1-1.8,1.8s-0.7,1.6-0.7,2.5s0.2,1.7,0.7,2.5c0.4,0.7,1,1.3,1.8,1.8s1.6,0.7,2.5,0.7c1.1,0,2.1-0.3,3-1
			C80.1,24.8,80.3,24.7,80.6,24.7z"/>
		<path class="st7" d="M84.8,16.1c-0.3,0-0.6-0.1-0.8-0.3c-0.2-0.2-0.3-0.5-0.3-0.8s0.1-0.6,0.3-0.8c0.2-0.2,0.5-0.3,0.8-0.3h7.4
			c0.3,0,0.6,0.1,0.8,0.3c0.2,0.2,0.3,0.5,0.3,0.8s-0.1,0.6-0.3,0.8c-0.2,0.2-0.5,0.3-0.8,0.3H84.8z M92.3,25.9
			c0.3,0,0.6,0.1,0.8,0.3c0.2,0.2,0.3,0.5,0.3,0.8c0,0.3-0.1,0.6-0.3,0.8c-0.2,0.2-0.5,0.3-0.8,0.3h-7.4c-0.3,0-0.6-0.1-0.8-0.3
			c-0.2-0.2-0.3-0.5-0.3-0.8v0v0v0v0v-6v0v0v0c0-0.3,0.1-0.6,0.3-0.8c0.2-0.2,0.5-0.3,0.8-0.3h2.7c0.3,0,0.6,0.1,0.8,0.3
			s0.3,0.5,0.3,0.8c0,0.3-0.1,0.6-0.3,0.8c-0.2,0.2-0.5,0.3-0.8,0.3H86v3.8H92.3z"/>
		<path class="st7" d="M109.5,15.8c0.4,0.7,0.6,1.4,0.5,2.2c0,0.4-0.1,0.9-0.2,1.4c-0.1,0.5-0.4,0.9-0.7,1.3c-0.3,0.4-0.8,0.8-1.3,1
			c-0.6,0.3-1.2,0.4-2,0.4l-3,0v4.9c0,0.3-0.1,0.6-0.3,0.8c-0.2,0.2-0.5,0.3-0.8,0.3c-0.3,0-0.6-0.1-0.8-0.3
			c-0.2-0.2-0.3-0.5-0.3-0.8v-6c0-0.3,0.1-0.6,0.3-0.8c0.2-0.3,0.5-0.4,0.8-0.4l1.3,0c0.1,0,0.2,0,0.3,0c0.4,0,0.9,0,1.5,0
			c0.6,0,0.9,0,1.2,0c0.5,0,1-0.2,1.3-0.5c0.3-0.4,0.5-0.8,0.5-1.3h0c0-0.5-0.2-0.9-0.5-1.3s-0.8-0.6-1.4-0.6c-0.2,0-0.6,0-1.1,0
			c-0.5,0-1,0-1.4,0c-0.1,0-0.3,0-0.3,0l-1.3,0c-0.3,0-0.6-0.1-0.8-0.3c-0.2-0.2-0.3-0.5-0.3-0.8c0-0.3,0.1-0.6,0.3-0.8
			c0.2-0.2,0.5-0.3,0.8-0.3h1.1l1.9,0c0,0,0.1,0,0.1,0c0.4,0,0.7,0,1,0v0c0.1,0,0.2,0,0.3,0c0.6,0,1.1,0.1,1.5,0.2s0.7,0.4,1,0.7
			C109,15.1,109.2,15.4,109.5,15.8C109.5,15.8,109.5,15.8,109.5,15.8C109.5,15.8,109.5,15.8,109.5,15.8z"/>
		<path class="st7" d="M121.8,26.6c0.1,0.3,0.1,0.6,0,0.8c-0.1,0.3-0.3,0.5-0.6,0.6c-0.3,0.1-0.6,0.1-0.8,0
			c-0.3-0.1-0.5-0.3-0.6-0.6l-4.5-10l-4.5,10c-0.1,0.3-0.3,0.5-0.6,0.6s-0.6,0.1-0.8,0c-0.3-0.1-0.5-0.3-0.6-0.6
			c-0.1-0.3-0.1-0.5,0-0.8l5.5-12.1c0.1-0.2,0.2-0.3,0.4-0.4c0,0,0,0,0.1-0.1h0c0,0,0,0,0.1,0c0,0,0,0,0,0c0,0,0,0,0,0l0,0
			c0,0,0,0,0,0s0,0,0,0l0,0h0c0,0,0,0,0,0h0c0,0,0,0,0,0c0,0,0,0,0.1,0c0.1,0,0.2,0,0.3,0s0.2,0,0.3,0h0c0,0,0.1,0,0.1,0
			c0,0,0,0,0,0h0l0,0c0,0,0,0,0.1,0h0h0c0.1,0,0.1,0.1,0.2,0.1c0.1,0.1,0.2,0.3,0.3,0.4L121.8,26.6z M116.6,25.9
			c0.3,0,0.6,0.1,0.8,0.3c0.2,0.2,0.3,0.5,0.3,0.8c0,0.3-0.1,0.6-0.3,0.8c-0.2,0.2-0.5,0.3-0.8,0.3H114c-0.3,0-0.6-0.1-0.8-0.3
			s-0.3-0.5-0.3-0.8c0-0.3,0.1-0.6,0.3-0.8c0.2-0.2,0.5-0.3,0.8-0.3H116.6z"/>
		<path class="st7" d="M133.1,15.8c0.4,0.7,0.6,1.4,0.5,2.2c0,0.5-0.1,0.9-0.2,1.4s-0.4,0.9-0.7,1.3c-0.3,0.4-0.8,0.8-1.3,1
			c-0.6,0.3-1.2,0.4-2,0.4l-3,0v4.9c0,0.3-0.1,0.6-0.3,0.8c-0.2,0.2-0.5,0.3-0.8,0.3c-0.3,0-0.6-0.1-0.8-0.3
			c-0.2-0.2-0.3-0.5-0.3-0.8v-6c0-0.3,0.1-0.6,0.3-0.8c0.2-0.2,0.5-0.4,0.8-0.4l1.3,0c0.1,0,0.3,0,0.5,0c0.4,0,0.9,0,1.4,0
			s0.9,0,1.1,0c0.5,0,1-0.2,1.3-0.5c0.3-0.4,0.5-0.8,0.5-1.3h0c0-0.5-0.2-0.9-0.5-1.3c-0.4-0.4-0.8-0.6-1.3-0.6c-0.2,0-0.4,0-0.8,0
			c-0.3,0-0.7,0-1.1,0s-0.7,0-0.9,0c-0.1,0-0.1,0-0.1,0l-1.3,0c-0.3,0-0.6-0.1-0.8-0.3c-0.2-0.2-0.3-0.5-0.3-0.8
			c0-0.3,0.1-0.6,0.3-0.8c0.2-0.2,0.5-0.3,0.8-0.3h1.1l1.9,0c0,0,0.1,0,0.1,0c0.4,0,0.7,0,1,0v0c0.1,0,0.2,0,0.3,0
			c0.6,0,1.1,0.1,1.5,0.3c0.4,0.2,0.7,0.4,1,0.7C132.5,15.1,132.8,15.4,133.1,15.8C133,15.8,133,15.8,133.1,15.8z M131.4,24.3
			l1.9,1.9c0.2,0.2,0.3,0.5,0.3,0.8s-0.1,0.6-0.3,0.8c-0.2,0.2-0.5,0.3-0.8,0.3s-0.6-0.1-0.8-0.3l-1.9-1.9c-0.2-0.2-0.3-0.5-0.3-0.8
			s0.1-0.6,0.3-0.8c0.2-0.2,0.5-0.3,0.8-0.3C130.9,24,131.1,24.1,131.4,24.3z"/>
		<path class="st7" d="M136.8,13.7c0.3,0,0.6,0.1,0.8,0.3c0.2,0.2,0.3,0.5,0.3,0.8V27c0,0.3-0.1,0.6-0.3,0.8s-0.5,0.3-0.8,0.3
			c-0.3,0-0.6-0.1-0.8-0.3c-0.2-0.2-0.3-0.5-0.3-0.8V14.8c0-0.3,0.1-0.6,0.3-0.8C136.2,13.8,136.4,13.7,136.8,13.7z M145.1,26.3
			c0.2,0.3,0.3,0.6,0.2,0.9s-0.2,0.6-0.4,0.8c-0.3,0.2-0.6,0.3-0.9,0.2s-0.6-0.2-0.8-0.4l-4.8-6c-0.2-0.3-0.3-0.5-0.2-0.9
			c0-0.3,0.2-0.6,0.4-0.8c0.3-0.2,0.5-0.3,0.8-0.2c0.3,0,0.6,0.2,0.8,0.4L145.1,26.3z M141.9,17.9c-0.2-0.2-0.4-0.5-0.4-0.8
			c0-0.3,0-0.6,0.2-0.8l1.6-2.1c0.2-0.2,0.5-0.4,0.8-0.4c0.3,0,0.6,0,0.8,0.2c0.2,0.2,0.4,0.5,0.4,0.8c0,0.3,0,0.6-0.2,0.8l-1.6,2.1
			c-0.2,0.2-0.5,0.4-0.8,0.4C142.5,18.1,142.2,18,141.9,17.9z"/>
	</g>
</g>
</svg>
