<?xml version="1.0" encoding="utf-8"?>
<!-- Generator: Adobe Illustrator 23.0.2, SVG Export Plug-In . SVG Version: 6.00 Build 0)  -->
<svg version="1.1" id="Layer_1" xmlns="http://www.w3.org/2000/svg" xmlns:xlink="http://www.w3.org/1999/xlink" x="0px" y="0px"
	 viewBox="0 0 116.17 103.53" style="enable-background:new 0 0 116.17 103.53;" xml:space="preserve">
<style type="text/css">
	.st0{fill:none;stroke:#FFFFFF;stroke-width:6;stroke-miterlimit:10;}
	.st1{fill:#FFFFFF;stroke:#FFFFFF;stroke-miterlimit:10;}
</style>
<g>
	<path class="st0" d="M92.86,49.57c0,17.99-14.59,32.58-32.58,32.58c-17.99,0-32.58-14.59-32.58-32.58
		c0-17.99,14.59-32.58,32.58-32.58C78.27,16.99,92.86,31.58,92.86,49.57z"/>
	
		<ellipse transform="matrix(0.7071 -0.7071 0.7071 0.7071 -17.3949 57.1447)" class="st0" cx="60.28" cy="49.57" rx="43.73" ry="43.73"/>
	<path class="st1" d="M66.01,49.57c0,3.16-2.57,5.73-5.73,5.73c-3.16,0-5.73-2.57-5.73-5.73c0-3.16,2.57-5.73,5.73-5.73
		C63.45,43.84,66.01,46.41,66.01,49.57z"/>
	<polyline class="st0" points="60.22,27.34 60.22,49.45 74.96,67.35 	"/>
</g>
</svg>
